# This file uses centimeters as units for non-parametric coordinates.

mtllib hub_edges.mtl
g default
v -8.800446 71.159744 36.221008
v 15.199554 71.159744 36.221008
v 15.199554 71.888321 36.221008
v -8.800446 71.888321 36.221008
v -8.800446 71.159744 36.106033
v -8.800446 71.888321 36.106033
v -8.800446 71.159744 12.221007
v 15.199554 71.159744 12.221007
v 15.084582 71.159744 36.106033
v 15.084582 71.159744 12.335980
v -8.800446 71.159744 12.335980
v 15.199554 71.888321 12.221007
v -8.800446 71.888321 12.221007
v -8.800446 71.888321 12.335980
v 15.084582 71.888321 12.335980
v 15.084582 71.888321 36.106033
v -8.800446 84.114418 36.221008
v 15.199554 84.114418 36.221008
v 15.199554 84.842995 36.221008
v -8.800446 84.842995 36.221008
v -8.800446 84.114418 36.106033
v -8.800446 84.842995 36.106033
v 15.084580 84.114418 12.221007
v 15.199554 84.114418 12.221007
v 15.084580 84.114418 36.106033
v 15.199554 84.842995 12.221007
v 15.084580 84.842995 12.221007
v 15.084580 84.842995 36.106033
v -8.800446 97.069099 36.221008
v 15.199554 97.069099 36.221008
v 15.199554 97.797676 36.221008
v -8.800446 97.797676 36.221008
v -8.800446 97.069099 12.221007
v -8.800446 97.797676 12.221007
v 15.084581 97.069099 36.106033
v 15.084581 97.069099 12.335980
v -8.685472 97.069099 12.335980
v 15.199554 97.069099 12.221007
v -8.685472 97.069099 36.106033
v 15.199554 97.797676 12.221007
v 15.084581 97.797676 36.106033
v -8.685472 97.797676 36.106033
v -8.685472 97.797676 12.335980
v 15.084581 97.797676 12.335980
vt 0.375000 0.000000
vt 0.625000 0.000000
vt 0.625000 0.250000
vt 0.375000 0.250000
vt 0.373802 0.000000
vt 0.373802 0.250000
vt 0.375000 0.750000
vt 0.625000 0.750000
vt 0.625000 1.000000
vt 0.375000 1.000000
vt 0.375000 0.998802
vt 0.623802 0.998802
vt 0.623802 0.751198
vt 0.375000 0.751198
vt 0.875000 0.000000
vt 0.875000 0.250000
vt 0.625000 0.500000
vt 0.375000 0.500000
vt 0.375000 0.498802
vt 0.623802 0.498802
vt 0.623802 0.251198
vt 0.375000 0.251198
vt 0.125000 0.000000
vt 0.126198 0.000000
vt 0.126198 0.250000
vt 0.125000 0.250000
vt 0.625000 0.024679
vt 0.416722 0.024679
vt 0.416722 0.094540
vt 0.625000 0.094540
vt 0.875000 0.024679
vt 0.875000 0.094540
vt 0.625000 0.655460
vt 0.416722 0.655460
vt 0.416722 0.725321
vt 0.625000 0.725321
vt 0.375000 0.000000
vt 0.625000 0.000000
vt 0.625000 0.250000
vt 0.375000 0.250000
vt 0.373802 0.000000
vt 0.373802 0.250000
vt 0.623802 0.750000
vt 0.625000 0.750000
vt 0.625000 1.000000
vt 0.375000 1.000000
vt 0.375000 0.998802
vt 0.623802 0.998802
vt 0.875000 0.000000
vt 0.875000 0.250000
vt 0.625000 0.500000
vt 0.623802 0.500000
vt 0.623802 0.251198
vt 0.375000 0.251198
vt 0.385595 0.000000
vt 0.385595 0.250000
vt 0.625000 0.250000
vt 0.625000 0.000000
vt 0.858837 0.250000
vt 0.858837 0.000000
vt 0.375000 0.000000
vt 0.625000 0.000000
vt 0.625000 0.250000
vt 0.375000 0.250000
vt 0.125000 0.000000
vt 0.125000 0.250000
vt 0.623802 0.998802
vt 0.623802 0.751198
vt 0.376198 0.751198
vt 0.375000 0.750000
vt 0.625000 0.750000
vt 0.625000 1.000000
vt 0.376198 0.998802
vt 0.375000 1.000000
vt 0.875000 0.000000
vt 0.875000 0.250000
vt 0.623802 0.251198
vt 0.376198 0.251198
vt 0.376198 0.498802
vt 0.375000 0.500000
vt 0.625000 0.500000
vt 0.623802 0.498802
vt 0.375000 0.000000
vt 0.375000 0.250000
vt 0.625000 0.250000
vt 0.625000 0.000000
vt 0.125000 0.000000
vt 0.125000 0.250000
vt 0.875000 0.250000
vt 0.875000 0.000000
vt 0.375000 0.500000
vt 0.375000 0.750000
vt 0.625000 0.750000
vt 0.625000 0.500000
vn 0.000000 0.000000 1.000000
vn 0.000000 0.000000 1.000000
vn 0.000000 0.000000 1.000000
vn 0.000000 0.000000 1.000000
vn -1.000000 0.000000 0.000000
vn -1.000000 0.000000 0.000000
vn -1.000000 0.000000 0.000000
vn -1.000000 0.000000 0.000000
vn 0.000000 -1.000000 0.000000
vn 0.000000 -1.000000 0.000000
vn 0.000000 -1.000000 0.000000
vn 0.000000 -1.000000 0.000000
vn 0.000000 -1.000000 0.000000
vn 0.000000 -1.000000 0.000000
vn 0.000000 -1.000000 0.000000
vn 0.000000 -1.000000 0.000000
vn 1.000000 0.000000 0.000000
vn 1.000000 0.000000 0.000000
vn 1.000000 0.000000 0.000000
vn 1.000000 0.000000 0.000000
vn 0.000000 1.000000 0.000000
vn 0.000000 1.000000 0.000000
vn 0.000000 1.000000 0.000000
vn 0.000000 1.000000 0.000000
vn 0.000000 1.000000 0.000000
vn 0.000000 1.000000 0.000000
vn 0.000000 1.000000 0.000000
vn 0.000000 1.000000 0.000000
vn -1.000000 0.000000 0.000000
vn -1.000000 0.000000 0.000000
vn -1.000000 0.000000 0.000000
vn -1.000000 0.000000 0.000000
vn 0.000000 0.000000 -1.000000
vn 0.000000 0.000000 -1.000000
vn 0.000000 0.000000 -1.000000
vn 0.000000 0.000000 -1.000000
vn 0.000000 0.000000 -1.000000
vn 0.000000 0.000000 -1.000000
vn 0.000000 0.000000 -1.000000
vn 0.000000 0.000000 -1.000000
vn -1.000000 0.000000 0.000000
vn -1.000000 0.000000 0.000000
vn -1.000000 0.000000 0.000000
vn -1.000000 0.000000 0.000000
vn 0.000000 0.000000 1.000000
vn 0.000000 0.000000 1.000000
vn 0.000000 0.000000 1.000000
vn 0.000000 0.000000 1.000000
vn 0.000000 0.000000 1.000000
vn 0.000000 0.000000 1.000000
vn 0.000000 0.000000 1.000000
vn 0.000000 0.000000 1.000000
vn -1.000000 0.000000 0.000000
vn -1.000000 0.000000 0.000000
vn -1.000000 0.000000 0.000000
vn -1.000000 0.000000 0.000000
vn 0.000000 -1.000000 0.000022
vn 0.000000 -1.000000 0.000022
vn 0.000000 -1.000000 0.000022
vn 0.000000 -1.000000 0.000022
vn 0.000000 -1.000000 0.000022
vn 0.000000 -1.000000 0.000022
vn 1.000000 0.000000 0.000000
vn 1.000000 0.000000 0.000000
vn 1.000000 0.000000 0.000000
vn 1.000000 0.000000 0.000000
vn 0.000000 1.000000 -0.000022
vn 0.000000 1.000000 -0.000022
vn 0.000000 1.000000 -0.000022
vn 0.000000 1.000000 -0.000022
vn 0.000000 1.000000 -0.000022
vn 0.000000 1.000000 -0.000022
vn 0.000000 0.000000 -1.000000
vn 0.000000 0.000000 -1.000000
vn 0.000000 0.000000 -1.000000
vn 0.000000 0.000000 -1.000000
vn 0.000000 0.000000 -1.000000
vn 0.000000 0.000000 -1.000000
vn 0.000000 0.000000 -1.000000
vn 0.000000 0.000000 -1.000000
vn -1.000000 0.000000 0.000000
vn -1.000000 0.000000 0.000000
vn -1.000000 0.000000 0.000000
vn -1.000000 0.000000 0.000000
vn 0.000000 0.000000 1.000000
vn 0.000000 0.000000 1.000000
vn 0.000000 0.000000 1.000000
vn 0.000000 0.000000 1.000000
vn -1.000000 0.000000 0.000000
vn -1.000000 0.000000 0.000000
vn -1.000000 0.000000 0.000000
vn -1.000000 0.000000 0.000000
vn 0.000000 -1.000000 -0.000006
vn 0.000000 -1.000000 -0.000013
vn 0.000000 -1.000000 -0.000006
vn 0.000000 -1.000000 -0.000006
vn 0.000000 -1.000000 -0.000013
vn 0.000000 -1.000000 -0.000006
vn 0.000000 -1.000000 0.000000
vn 0.000000 -1.000000 0.000000
vn 1.000000 0.000000 0.000000
vn 1.000000 0.000000 0.000000
vn 1.000000 0.000000 0.000000
vn 1.000000 0.000000 0.000000
vn 0.000000 1.000000 0.000009
vn 0.000000 1.000000 0.000009
vn 0.000000 1.000000 0.000009
vn 0.000000 1.000000 0.000009
vn 0.000000 1.000000 0.000009
vn 0.000000 1.000000 0.000009
vn 0.000000 1.000000 0.000008
vn 0.000000 1.000000 0.000008
vn 0.000000 0.000000 -1.000000
vn 0.000000 0.000000 -1.000000
vn 0.000000 0.000000 -1.000000
vn 0.000000 0.000000 -1.000000
vn 0.000000 0.000000 -1.000000
vn 0.000000 0.000000 -1.000000
vn 0.000000 0.000000 -1.000000
vn 0.000000 0.000000 -1.000000
vn 1.000000 0.000000 0.000000
vn 1.000000 0.000000 0.000000
vn 1.000000 0.000000 0.000000
vn 1.000000 0.000000 0.000000
vn -1.000000 0.000000 0.000000
vn -1.000000 0.000000 0.000000
vn -1.000000 0.000000 0.000000
vn -1.000000 0.000000 0.000000
vn 0.000000 0.000000 1.000000
vn 0.000000 0.000000 1.000000
vn 0.000000 0.000000 1.000000
vn 0.000000 0.000000 1.000000
s off
g edges_edge1
usemtl initialShadingGroup
f 1/1/1 2/2/2 3/3/3 4/4/4
f 5/5/5 1/1/6 4/4/7 6/6/8
f 7/7/9 8/8/10 2/9/11 1/10/12 5/11/13 9/12/14 10/13/15 11/14/16
f 2/2/17 8/15/18 12/16/19 3/3/20
f 4/4/21 3/3/22 12/17/23 13/18/24 14/19/25 15/20/26 16/21/27 6/22/28
f 7/23/29 11/24/30 14/25/31 13/26/32
f 13/18/33 12/17/34 8/8/35 7/7/36
f 9/27/37 5/28/38 6/29/39 16/30/40
f 10/31/41 9/27/42 16/30/43 15/32/44
f 15/33/45 14/34/46 11/35/47 10/36/48
f 17/37/49 18/38/50 19/39/51 20/40/52
f 21/41/53 17/37/54 20/40/55 22/42/56
f 23/43/57 24/44/58 18/45/59 17/46/60 21/47/61 25/48/62
f 18/38/63 24/49/64 26/50/65 19/39/66
f 20/40/67 19/39/68 26/51/69 27/52/70 28/53/71 22/54/72
f 27/52/73 26/51/74 24/44/75 23/43/76
f 21/55/77 22/56/78 28/57/79 25/58/80
f 27/59/81 23/60/82 25/58/83 28/57/84
f 29/61/85 30/62/86 31/63/87 32/64/88
f 33/65/89 29/61/90 32/64/91 34/66/92
s 1
f 35/67/93 36/68/94 37/69/95 33/70/96 38/71/97 30/72/98
f 33/70/96 37/69/95 39/73/99 35/67/93 30/72/98 29/74/100
s off
f 30/62/101 38/75/102 40/76/103 31/63/104
s 2
f 32/64/105 31/63/106 41/77/107 42/78/108 43/79/109 34/80/110
f 31/63/106 40/81/111 34/80/110 43/79/109 44/82/112 41/77/107
s off
f 34/80/113 40/81/114 38/71/115 33/70/116
f 39/83/117 42/84/118 41/85/119 35/86/120
f 37/87/121 43/88/122 42/84/123 39/83/124
f 35/86/125 41/85/126 44/89/127 36/90/128
f 43/91/129 37/92/130 36/93/131 44/94/132
