# This file uses centimeters as units for non-parametric coordinates.

mtllib hub_wall1_plane.mtl
g default
v -1.184264 0.000000 7.220999
v -3.455148 0.000000 7.220999
v 1.180192 0.000000 7.220999
v -1.437416 1.820026 7.512107
v -3.455148 0.318361 7.271920
v 4.292088 0.000000 7.220999
v 1.299027 1.784343 7.348949
v -3.455148 1.653638 7.366054
v 6.508984 0.000000 7.220999
v 1.173955 3.424450 7.081928
v -3.455148 3.456085 7.435328
v 8.856746 0.000000 7.220999
v 6.494971 1.956562 7.116552
v 4.373849 2.106247 7.300703
v -1.117805 3.938451 6.934639
v -3.455148 3.631322 7.391869
v 9.544853 0.000000 7.220999
v 8.915294 1.618132 6.949098
v 4.185078 3.769354 7.182717
v 0.053426 5.000000 6.998602
v 1.039408 5.000000 7.060081
v -2.370126 5.000000 6.935687
v -3.455148 5.000000 7.119575
v 9.544853 1.148719 7.027975
v 8.982650 3.819096 7.109634
v 6.494385 3.856217 7.336006
v 2.263625 5.000000 7.102587
v -1.187326 5.000000 7.154007
v 9.544853 1.653997 7.031103
v 9.544853 3.768808 7.093694
v 9.544853 2.280885 6.984175
v 4.260662 5.000000 7.331567
v 5.387120 5.000000 7.401377
v 9.544853 4.318916 7.079821
v 7.659593 5.000000 7.435914
v 8.754443 5.000000 7.339205
v 6.581785 5.000000 7.380922
v 9.544853 5.000000 7.186857
vt 0.451068 0.750000
vt 0.467766 0.750000
vt 0.467766 0.747944
vt 0.451394 0.749640
vt 0.485152 0.750000
vt 0.485152 0.747944
vt 0.451435 0.747944
vt 0.508033 0.750000
vt 0.485152 0.745964
vt 0.449598 0.746131
vt 0.524334 0.750000
vt 0.524334 0.747944
vt 0.508033 0.747944
vt 0.467766 0.745964
vt 0.449385 0.745964
vt 0.541597 0.750000
vt 0.541597 0.747944
vt 0.508033 0.745964
vt 0.477526 0.744447
vt 0.485152 0.744194
vt 0.458428 0.744693
vt 0.449955 0.744545
vt 0.546351 0.748541
vt 0.546656 0.750000
vt 0.541597 0.745964
vt 0.524334 0.745964
vt 0.494364 0.744350
vt 0.467766 0.744717
vt 0.546069 0.747944
vt 0.546537 0.745964
vt 0.546936 0.747299
vt 0.508033 0.744534
vt 0.516003 0.744583
vt 0.545661 0.745294
vt 0.533979 0.744454
vt 0.541597 0.744433
vt 0.524334 0.744696
vt 0.546473 0.744407
vn -0.000001 -0.157940 0.987449
vn -0.000001 -0.157940 0.987449
vn -0.000001 -0.157940 0.987449
vn -0.000001 -0.157940 0.987449
vn 0.000000 -0.071524 0.997439
vn 0.000000 -0.071524 0.997439
vn 0.000000 -0.071524 0.997439
vn 0.056897 -0.149963 0.987053
vn 0.056897 -0.149963 0.987053
vn 0.056897 -0.149963 0.987053
vn -0.066261 -0.070169 0.995332
vn -0.066261 -0.070169 0.995332
vn -0.066261 -0.070169 0.995332
vn 0.000000 -0.071524 0.997439
vn 0.000000 -0.071524 0.997439
vn 0.000000 -0.071524 0.997439
vn 0.060846 0.164912 0.984430
vn 0.060846 0.164912 0.984430
vn 0.060846 0.164912 0.984430
vn -0.069000 -0.038313 0.996881
vn -0.069000 -0.038313 0.996881
vn -0.069000 -0.038313 0.996881
vn 0.000000 0.053307 0.998578
vn 0.000000 0.053307 0.998578
vn 0.000000 0.053307 0.998578
vn 0.019714 -0.038572 0.999061
vn 0.019714 -0.038572 0.999061
vn 0.019714 -0.038572 0.999061
vn -0.001325 0.160592 0.987020
vn -0.001325 0.160592 0.987020
vn -0.001325 0.160592 0.987020
vn -0.002922 0.263406 0.964680
vn -0.002922 0.263406 0.964680
vn -0.002922 0.263406 0.964680
vn 0.156295 0.237747 0.958670
vn 0.156295 0.237747 0.958670
vn 0.156295 0.237747 0.958670
vn 0.156295 0.237747 0.958670
vn 0.000000 0.165711 0.986174
vn 0.000000 0.165711 0.986174
vn 0.000000 0.165711 0.986174
vn 0.076393 0.053697 0.995631
vn 0.076393 0.053697 0.995631
vn 0.076393 0.053697 0.995631
vn 0.083553 -0.040921 0.995663
vn 0.083553 -0.040921 0.995663
vn 0.083553 -0.040921 0.995663
vn -0.040940 0.066081 0.996974
vn -0.040940 0.066081 0.996974
vn -0.040940 0.066081 0.996974
vn -0.062230 0.008524 0.998025
vn -0.062230 0.008524 0.998025
vn -0.062230 0.008524 0.998025
vn -0.062230 0.008524 0.998025
vn 0.163971 0.192482 0.967504
vn 0.163971 0.192482 0.967504
vn 0.163971 0.192482 0.967504
vn 0.163971 0.192482 0.967504
vn 0.000000 0.165711 0.986174
vn 0.000000 0.165711 0.986174
vn 0.000000 0.165711 0.986174
vn 0.000000 0.165711 0.986174
vn 0.058473 -0.074401 0.995513
vn 0.058473 -0.074401 0.995513
vn 0.058473 -0.074401 0.995513
vn 0.077910 -0.114387 0.990376
vn 0.077910 -0.114387 0.990376
vn 0.077910 -0.114387 0.990376
vn -0.068456 0.062866 0.995671
vn -0.068456 0.062866 0.995671
vn -0.068456 0.062866 0.995671
vn -0.034698 0.010894 0.999339
vn -0.034698 0.010894 0.999339
vn -0.034698 0.010894 0.999339
vn -0.034698 0.010894 0.999339
vn 0.121938 -0.193199 0.973553
vn 0.121938 -0.193199 0.973553
vn 0.121938 -0.193199 0.973553
vn -0.177455 -0.210294 0.961398
vn -0.177455 -0.210294 0.961398
vn -0.177455 -0.210294 0.961398
vn -0.128820 -0.006138 0.991649
vn -0.128820 -0.006138 0.991649
vn -0.128820 -0.006138 0.991649
vn 0.021705 -0.073390 0.997067
vn 0.021705 -0.073390 0.997067
vn 0.021705 -0.073390 0.997067
vn 0.021705 -0.073390 0.997067
vn 0.088317 -0.114285 0.989515
vn 0.088317 -0.114285 0.989515
vn 0.088317 -0.114285 0.989515
vn -0.061435 -0.116131 0.991332
vn -0.061435 -0.116131 0.991332
vn -0.061435 -0.116131 0.991332
vn -0.061435 -0.116131 0.991332
vn -0.113190 -0.112451 0.987189
vn -0.113190 -0.112451 0.987189
vn -0.113190 -0.112451 0.987189
vn -0.132956 0.073987 0.988357
vn -0.132956 0.073987 0.988357
vn -0.132956 0.073987 0.988357
vn 0.030587 0.025199 0.999214
vn 0.030587 0.025199 0.999214
vn 0.030587 0.025199 0.999214
vn 0.086646 -0.173952 0.980935
vn 0.086646 -0.173952 0.980935
vn 0.086646 -0.173952 0.980935
vn 0.086646 -0.173952 0.980935
vn 0.017105 -0.040538 0.999032
vn 0.017105 -0.040538 0.999032
vn 0.017105 -0.040538 0.999032
vn 0.187049 -0.152510 0.970440
vn 0.187049 -0.152510 0.970440
vn 0.187049 -0.152510 0.970440
vn 0.187049 -0.152510 0.970440
vn -0.050924 -0.035303 0.998078
vn -0.050924 -0.035303 0.998078
vn -0.050924 -0.035303 0.998078
s off
g wall1 hub
usemtl initialShadingGroup
f 2/1/1 1/2/2 4/3/3 5/4/4
f 3/5/5 7/6/6 1/2/7
f 1/2/8 7/6/9 4/3/10
f 5/4/11 4/3/12 8/7/13
f 6/8/14 7/6/15 3/5/16
f 7/6/17 10/9/18 4/3/19
f 8/7/20 4/3/21 11/10/22
f 9/11/23 13/12/24 6/8/25
f 14/13/26 7/6/27 6/8/28
f 14/13/29 10/9/30 7/6/31
f 4/3/32 10/9/33 15/14/34
f 11/10/35 4/3/36 15/14/37 16/15/38
f 12/16/39 18/17/40 9/11/41
f 9/11/42 18/17/43 13/12/44
f 6/8/45 13/12/46 14/13/47
f 19/18/48 10/9/49 14/13/50
f 20/19/51 15/14/52 10/9/53 21/20/54
f 15/14/55 22/21/56 23/22/57 16/15/58
f 24/23/59 18/17/60 12/16/61 17/24/62
f 18/17/63 25/25/64 13/12/65
f 13/12/66 26/26/67 14/13/68
f 14/13/69 26/26/70 19/18/71
f 21/20/72 10/9/73 19/18/74 27/27/75
f 28/28/76 15/14/77 20/19/78
f 22/21/79 15/14/80 28/28/81
f 29/29/82 18/17/83 24/23/84
f 30/30/85 25/25/86 18/17/87 31/31/88
f 13/12/89 25/25/90 26/26/91
f 32/32/92 19/18/93 26/26/94 33/33/95
f 27/27/96 19/18/97 32/32/98
f 31/31/99 18/17/100 29/29/101
f 34/34/102 25/25/103 30/30/104
f 35/35/105 26/26/106 25/25/107 36/36/108
f 33/33/109 26/26/110 37/37/111
f 25/25/112 34/34/113 38/38/114 36/36/115
f 37/37/116 26/26/117 35/35/118
