# This file uses centimeters as units for non-parametric coordinates.

mtllib hub_wall1.mtl
g default
v 9.544853 0.000000 6.720999
v -3.455148 0.000000 6.720999
v -3.455148 5.000000 6.720999
v 9.544853 5.000000 6.720999
v 9.544853 0.000000 6.882661
v -3.455148 0.000000 7.071067
v 9.544853 0.000000 6.896378
v -3.455148 0.000000 7.100770
v 9.544853 0.000000 6.910587
v -3.455148 0.000000 7.131538
v 9.544853 0.000000 6.927118
v -3.455148 0.000000 7.167336
v 9.544853 0.000000 6.947882
v -3.455148 0.000000 7.212298
v 9.544853 0.000000 6.975861
v -1.184264 0.000000 7.220999
v -3.455148 0.000000 7.220999
v 9.544853 0.000000 7.006733
v 1.180192 0.000000 7.220999
v -1.437416 1.820026 7.512107
v -3.455148 0.318361 7.271920
v 9.544853 0.000000 7.060926
v 4.292088 0.000000 7.220999
v 1.299027 1.784343 7.348949
v -3.455148 1.653638 7.366054
v 9.544853 0.000000 7.114031
v 6.508984 0.000000 7.220999
v 1.173955 3.424450 7.081928
v -3.455148 3.456085 7.435328
v 9.544853 0.000000 7.191947
v 8.856746 0.000000 7.220999
v 6.494971 1.956562 7.116552
v 4.373849 2.106247 7.300703
v -1.117805 3.938451 6.934639
v -3.455148 3.631322 7.391869
v 9.544853 0.000000 7.220999
v 8.915294 1.618132 6.949098
v 4.185078 3.769354 7.182717
v 0.053426 5.000000 6.998602
v 1.039408 5.000000 7.060081
v -2.370126 5.000000 6.935687
v -3.455148 5.000000 7.119575
v 9.544853 1.148719 7.027975
v 8.982650 3.819096 7.109634
v 6.494385 3.856217 7.336006
v 2.263625 5.000000 7.102587
v -1.187326 5.000000 7.154007
v 9.544853 1.653997 7.031103
v 9.544853 3.768808 7.093694
v 9.544853 2.280885 6.984175
v 4.260662 5.000000 7.331567
v 5.387120 5.000000 7.401377
v 9.544853 4.318916 7.079821
v 7.659593 5.000000 7.435914
v 8.754443 5.000000 7.339205
v 6.581785 5.000000 7.380922
v 9.544853 5.000000 7.186857
vt 0.545323 0.750000
vt 0.452466 0.750000
vt 0.452466 0.744484
vt 0.545323 0.744484
vt 0.545323 0.751155
vt 0.452466 0.752500
vt 0.544230 0.750040
vt 0.450098 0.750086
vt 0.544293 0.750081
vt 0.450235 0.750175
vt 0.544173 0.750322
vt 0.449976 0.750698
vt 0.544176 0.750473
vt 0.449981 0.751024
vt 0.544178 0.750676
vt 0.466441 0.751325
vt 0.449982 0.751087
vt 0.544182 0.750899
vt 0.483578 0.751574
vt 0.451068 0.750000
vt 0.467766 0.750000
vt 0.467766 0.747944
vt 0.451394 0.749640
vt 0.544187 0.751292
vt 0.506133 0.751900
vt 0.485152 0.750000
vt 0.485152 0.747944
vt 0.451435 0.747944
vt 0.544193 0.751677
vt 0.522201 0.752133
vt 0.508033 0.750000
vt 0.485152 0.745964
vt 0.449598 0.746131
vt 0.544201 0.752242
vt 0.539217 0.752380
vt 0.524334 0.750000
vt 0.524334 0.747944
vt 0.508033 0.747944
vt 0.467766 0.745964
vt 0.449385 0.745964
vt 0.544204 0.752452
vt 0.541597 0.750000
vt 0.541597 0.747944
vt 0.508033 0.745964
vt 0.477526 0.744447
vt 0.485152 0.744194
vt 0.458428 0.744693
vt 0.449955 0.744545
vt 0.546351 0.748541
vt 0.546656 0.750000
vt 0.541597 0.745964
vt 0.524334 0.745964
vt 0.494364 0.744350
vt 0.467766 0.744717
vt 0.546069 0.747944
vt 0.546537 0.745964
vt 0.546936 0.747299
vt 0.508033 0.744534
vt 0.516003 0.744583
vt 0.545661 0.745294
vt 0.533979 0.744454
vt 0.541597 0.744433
vt 0.524334 0.744696
vt 0.546473 0.744407
vt 0.625000 0.334260
vt 0.625000 0.435808
vt 0.375000 0.435808
vt 0.375000 0.348927
vt 0.395866 0.389010
vt 0.418612 0.341421
vt 0.442473 0.375296
vt 0.461434 0.361895
vt 0.484976 0.352629
vt 0.523381 0.302716
vt 0.545044 0.287499
vt 0.568018 0.291958
vt 0.588745 0.279971
vt 0.609800 0.301051
vt 0.810808 0.250000
vt 0.709260 0.250000
vt 0.732592 0.223338
vt 0.729568 0.201802
vt 0.753441 0.143554
vt 0.743212 0.119014
vt 0.743894 0.099233
vt 0.701818 0.054264
vt 0.708151 0.054264
vt 0.725135 0.054264
vt 0.736711 0.054264
vt 0.748524 0.054264
vt 0.755253 0.054264
vt 0.761352 0.054264
vt 0.765878 0.054264
vt 0.769482 0.054264
vt 0.772579 0.054264
vt 0.775569 0.054264
vt 0.810808 0.054264
vt 0.276073 0.250000
vt 0.189192 0.250000
vt 0.189192 0.054264
vt 0.265500 0.054264
vt 0.271974 0.054264
vt 0.278681 0.054264
vt 0.286484 0.054264
vt 0.296285 0.054264
vt 0.298182 0.054264
vt 0.309282 0.066727
vt 0.329801 0.119000
vt 0.344902 0.189560
vt 0.335429 0.196420
vn 0.000000 0.000000 -1.000000
vn 0.000000 0.000000 -1.000000
vn 0.000000 0.000000 -1.000000
vn 0.000000 0.000000 -1.000000
vn 0.000000 -1.000000 0.000000
vn 0.000000 -1.000000 0.000000
vn 0.000000 -1.000000 0.000000
vn 0.000000 -1.000000 0.000000
vn 0.000000 -1.000000 0.000000
vn 0.000000 -1.000000 0.000000
vn 0.000000 -1.000000 0.000000
vn 0.000000 -1.000000 0.000000
vn 0.000000 -1.000000 0.000000
vn 0.000000 -1.000000 0.000000
vn 0.000000 -1.000000 0.000000
vn 0.000000 -1.000000 0.000000
vn 0.000000 -1.000000 0.000000
vn 0.000000 -1.000000 0.000000
vn 0.000000 -1.000000 0.000000
vn 0.000000 -1.000000 0.000000
vn 0.000000 -1.000000 0.000000
vn 0.000000 -1.000000 0.000000
vn 0.000000 -1.000000 0.000000
vn 0.000000 -1.000000 0.000000
vn 0.000000 -1.000000 0.000000
vn 0.000000 -1.000000 0.000000
vn 0.000000 -1.000000 0.000000
vn 0.000000 -1.000000 0.000000
vn 0.000000 -1.000000 0.000000
vn 0.000000 -1.000000 0.000000
vn 0.000000 -1.000000 0.000000
vn 0.000000 -1.000000 0.000000
vn 0.000000 -1.000000 0.000000
vn -0.000001 -0.157940 0.987449
vn -0.000001 -0.157940 0.987449
vn -0.000001 -0.157940 0.987449
vn -0.000001 -0.157940 0.987449
vn 0.000000 -1.000000 0.000000
vn 0.000000 -1.000000 0.000000
vn 0.000000 -1.000000 0.000000
vn 0.000000 -1.000000 0.000000
vn 0.000000 -0.071524 0.997439
vn 0.000000 -0.071524 0.997439
vn 0.000000 -0.071524 0.997439
vn 0.056897 -0.149963 0.987053
vn 0.056897 -0.149963 0.987053
vn 0.056897 -0.149963 0.987053
vn -0.066261 -0.070169 0.995332
vn -0.066261 -0.070169 0.995332
vn -0.066261 -0.070169 0.995332
vn 0.000000 -1.000000 0.000000
vn 0.000000 -1.000000 0.000000
vn 0.000000 -1.000000 0.000000
vn 0.000000 -1.000000 0.000000
vn 0.000000 -0.071524 0.997439
vn 0.000000 -0.071524 0.997439
vn 0.000000 -0.071524 0.997439
vn 0.060846 0.164912 0.984430
vn 0.060846 0.164912 0.984430
vn 0.060846 0.164912 0.984430
vn -0.069000 -0.038313 0.996881
vn -0.069000 -0.038313 0.996881
vn -0.069000 -0.038313 0.996881
vn 0.000000 -1.000000 0.000000
vn 0.000000 -1.000000 0.000000
vn 0.000000 -1.000000 0.000000
vn 0.000000 -1.000000 0.000000
vn 0.000000 0.053307 0.998578
vn 0.000000 0.053307 0.998578
vn 0.000000 0.053307 0.998578
vn 0.019714 -0.038572 0.999061
vn 0.019714 -0.038572 0.999061
vn 0.019714 -0.038572 0.999061
vn -0.001325 0.160592 0.987020
vn -0.001325 0.160592 0.987020
vn -0.001325 0.160592 0.987020
vn -0.002922 0.263406 0.964680
vn -0.002922 0.263406 0.964680
vn -0.002922 0.263406 0.964680
vn 0.156295 0.237747 0.958670
vn 0.156295 0.237747 0.958670
vn 0.156295 0.237747 0.958670
vn 0.156295 0.237747 0.958670
vn 0.000000 -1.000000 0.000000
vn 0.000000 -1.000000 0.000000
vn 0.000000 -1.000000 0.000000
vn 0.000000 0.165711 0.986174
vn 0.000000 0.165711 0.986174
vn 0.000000 0.165711 0.986174
vn 0.076393 0.053697 0.995631
vn 0.076393 0.053697 0.995631
vn 0.076393 0.053697 0.995631
vn 0.083553 -0.040921 0.995663
vn 0.083553 -0.040921 0.995663
vn 0.083553 -0.040921 0.995663
vn -0.040940 0.066081 0.996974
vn -0.040940 0.066081 0.996974
vn -0.040940 0.066081 0.996974
vn -0.062230 0.008524 0.998025
vn -0.062230 0.008524 0.998025
vn -0.062230 0.008524 0.998025
vn -0.062230 0.008524 0.998025
vn 0.163971 0.192482 0.967504
vn 0.163971 0.192482 0.967504
vn 0.163971 0.192482 0.967504
vn 0.163971 0.192482 0.967504
vn 0.000000 0.165711 0.986174
vn 0.000000 0.165711 0.986174
vn 0.000000 0.165711 0.986174
vn 0.000000 0.165711 0.986174
vn 0.058473 -0.074401 0.995513
vn 0.058473 -0.074401 0.995513
vn 0.058473 -0.074401 0.995513
vn 0.077910 -0.114387 0.990376
vn 0.077910 -0.114387 0.990376
vn 0.077910 -0.114387 0.990376
vn -0.068456 0.062866 0.995671
vn -0.068456 0.062866 0.995671
vn -0.068456 0.062866 0.995671
vn -0.034698 0.010894 0.999339
vn -0.034698 0.010894 0.999339
vn -0.034698 0.010894 0.999339
vn -0.034698 0.010894 0.999339
vn 0.121938 -0.193199 0.973553
vn 0.121938 -0.193199 0.973553
vn 0.121938 -0.193199 0.973553
vn -0.177455 -0.210294 0.961398
vn -0.177455 -0.210294 0.961398
vn -0.177455 -0.210294 0.961398
vn -0.128820 -0.006138 0.991649
vn -0.128820 -0.006138 0.991649
vn -0.128820 -0.006138 0.991649
vn 0.021705 -0.073390 0.997067
vn 0.021705 -0.073390 0.997067
vn 0.021705 -0.073390 0.997067
vn 0.021705 -0.073390 0.997067
vn 0.088317 -0.114285 0.989515
vn 0.088317 -0.114285 0.989515
vn 0.088317 -0.114285 0.989515
vn -0.061435 -0.116131 0.991332
vn -0.061435 -0.116131 0.991332
vn -0.061435 -0.116131 0.991332
vn -0.061435 -0.116131 0.991332
vn -0.113190 -0.112451 0.987189
vn -0.113190 -0.112451 0.987189
vn -0.113190 -0.112451 0.987189
vn -0.132956 0.073987 0.988357
vn -0.132956 0.073987 0.988357
vn -0.132956 0.073987 0.988357
vn 0.030587 0.025199 0.999214
vn 0.030587 0.025199 0.999214
vn 0.030587 0.025199 0.999214
vn 0.086646 -0.173952 0.980935
vn 0.086646 -0.173952 0.980935
vn 0.086646 -0.173952 0.980935
vn 0.086646 -0.173952 0.980935
vn 0.017105 -0.040538 0.999032
vn 0.017105 -0.040538 0.999032
vn 0.017105 -0.040538 0.999032
vn 0.187049 -0.152510 0.970440
vn 0.187049 -0.152510 0.970440
vn 0.187049 -0.152510 0.970440
vn 0.187049 -0.152510 0.970440
vn -0.050924 -0.035303 0.998078
vn -0.050924 -0.035303 0.998078
vn -0.050924 -0.035303 0.998078
vn 0.000000 1.000000 0.000000
vn 0.000000 1.000000 0.000000
vn 0.000000 1.000000 0.000000
vn 0.000000 1.000000 0.000000
vn 0.000000 1.000000 0.000000
vn 0.000000 1.000000 0.000000
vn 0.000000 1.000000 0.000000
vn 0.000000 1.000000 0.000000
vn 0.000000 1.000000 0.000000
vn 0.000000 1.000000 0.000000
vn 0.000000 1.000000 0.000000
vn 0.000000 1.000000 0.000000
vn 0.000000 1.000000 0.000000
vn 0.000000 1.000000 0.000000
vn 1.000000 0.000000 0.000000
vn 1.000000 0.000000 0.000000
vn 1.000000 0.000000 0.000000
vn 1.000000 0.000000 0.000000
vn 1.000000 0.000000 0.000000
vn 1.000000 0.000000 0.000000
vn 1.000000 0.000000 0.000000
vn 1.000000 0.000000 0.000000
vn 1.000000 0.000000 0.000000
vn 1.000000 0.000000 0.000000
vn 1.000000 0.000000 0.000000
vn 1.000000 0.000000 0.000000
vn 1.000000 0.000000 0.000000
vn 1.000000 0.000000 0.000000
vn 1.000000 0.000000 0.000000
vn 1.000000 0.000000 0.000000
vn 1.000000 0.000000 0.000000
vn 1.000000 0.000000 0.000000
vn 1.000000 0.000000 0.000000
vn -1.000000 0.000000 0.000000
vn -1.000000 0.000000 0.000000
vn -1.000000 0.000000 0.000000
vn -1.000000 0.000000 0.000000
vn -1.000000 0.000000 0.000000
vn -1.000000 0.000000 0.000000
vn -1.000000 0.000000 0.000000
vn -1.000000 0.000000 0.000000
vn -1.000000 0.000000 0.000000
vn -1.000000 0.000000 0.000000
vn -1.000000 0.000000 0.000000
vn -1.000000 0.000000 0.000000
vn -1.000000 0.000000 0.000000
s off
g hubtube5
usemtl initialShadingGroup
f 1/1/1 2/2/2 3/3/3 4/4/4
f 2/2/5 1/1/6 5/5/7 6/6/8
f 6/6/9 5/5/10 7/7/11 8/8/12
f 8/8/13 7/7/14 9/9/15 10/10/16
f 10/10/17 9/9/18 11/11/19 12/12/20
f 12/12/21 11/11/22 13/13/23 14/14/24
f 14/14/25 13/13/26 15/15/27 16/16/28 17/17/29
f 18/18/30 19/19/31 16/16/32 15/15/33
f 17/20/34 16/21/35 20/22/36 21/23/37
f 22/24/38 23/25/39 19/19/40 18/18/41
f 19/26/42 24/27/43 16/21/44
f 16/21/45 24/27/46 20/22/47
f 21/23/48 20/22/49 25/28/50
f 26/29/51 27/30/52 23/25/53 22/24/54
f 23/31/55 24/27/56 19/26/57
f 24/27/58 28/32/59 20/22/60
f 25/28/61 20/22/62 29/33/63
f 30/34/64 31/35/65 27/30/66 26/29/67
f 27/36/68 32/37/69 23/31/70
f 33/38/71 24/27/72 23/31/73
f 33/38/74 28/32/75 24/27/76
f 20/22/77 28/32/78 34/39/79
f 29/33/80 20/22/81 34/39/82 35/40/83
f 36/41/84 31/35/85 30/34/86
f 31/42/87 37/43/88 27/36/89
f 27/36/90 37/43/91 32/37/92
f 23/31/93 32/37/94 33/38/95
f 38/44/96 28/32/97 33/38/98
f 39/45/99 34/39/100 28/32/101 40/46/102
f 34/39/103 41/47/104 42/48/105 35/40/106
f 43/49/107 37/43/108 31/42/109 36/50/110
f 37/43/111 44/51/112 32/37/113
f 32/37/114 45/52/115 33/38/116
f 33/38/117 45/52/118 38/44/119
f 40/46/120 28/32/121 38/44/122 46/53/123
f 47/54/124 34/39/125 39/45/126
f 41/47/127 34/39/128 47/54/129
f 48/55/130 37/43/131 43/49/132
f 49/56/133 44/51/134 37/43/135 50/57/136
f 32/37/137 44/51/138 45/52/139
f 51/58/140 38/44/141 45/52/142 52/59/143
f 46/53/144 38/44/145 51/58/146
f 50/57/147 37/43/148 48/55/149
f 53/60/150 44/51/151 49/56/152
f 54/61/153 45/52/154 44/51/155 55/62/156
f 52/59/157 45/52/158 56/63/159
f 44/51/160 53/60/161 57/64/162 55/62/163
f 56/63/164 45/52/165 54/61/166
f 57/65/167 4/66/168 3/67/169 42/68/170 41/69/171 47/70/172 39/71/173 40/72/174 46/73/175 51/74/176 52/75/177 56/76/178 54/77/179 55/78/180
f 4/79/181 57/80/182 53/81/183 49/82/184 50/83/185 48/84/186 43/85/187 36/86/188 30/87/189 26/88/190 22/89/191 18/90/192 15/91/193 13/92/194 11/93/195 9/94/196 7/95/197 5/96/198 1/97/199
f 42/98/200 3/99/201 2/100/202 6/101/203 8/102/204 10/103/205 12/104/206 14/105/207 17/106/208 21/107/209 25/108/210 29/109/211 35/110/212
