# This file uses centimeters as units for non-parametric coordinates.

mtllib Light01.mtl
g default
v -6.162025 6.851959 -8.381653
v -5.961035 6.538872 -8.243831
v -5.860373 6.663900 -8.447305
v -6.111678 6.935422 -8.261355
v -5.950274 6.844598 -7.998164
v -5.752340 6.877946 -8.347974
v -6.461152 7.324503 -8.243831
v -5.990543 7.364521 -7.706406
v -5.634431 7.324503 -8.145891
v -6.484911 7.324503 -8.603881
v -5.966784 7.324503 -8.603881
v -5.448658 7.324503 -8.603881
v -6.871224 7.290729 -9.124558
v -5.966784 7.290729 -9.124558
v -5.062345 7.290729 -9.124558
v -6.749978 6.946679 -9.124558
v -5.966784 6.637778 -9.124558
v -5.183591 6.956861 -9.124558
v -6.595286 6.463882 -9.124558
v -5.966784 6.277728 -9.124558
v -5.338283 6.761381 -9.124558
v -6.326834 6.782998 -8.603881
v -6.237177 6.563240 -8.603881
v -5.622782 6.568821 -8.606454
v -5.606734 6.671551 -8.603881
v -6.326834 6.954952 -8.603881
vt 0.375000 0.000000
vt 0.500000 0.000000
vt 0.625000 0.000000
vt 0.375000 0.125000
vt 0.500000 0.125000
vt 0.625000 0.125000
vt 0.375000 0.250000
vt 0.500000 0.250000
vt 0.625000 0.250000
vt 0.375000 0.375000
vt 0.500000 0.375000
vt 0.625000 0.375000
vt 0.375000 0.500000
vt 0.500000 0.500000
vt 0.625000 0.500000
vt 0.375000 0.625000
vt 0.500000 0.625000
vt 0.625000 0.625000
vt 0.375000 0.750000
vt 0.500000 0.750000
vt 0.625000 0.750000
vt 0.375000 0.875000
vt 0.500000 0.875000
vt 0.625000 0.875000
vt 0.375000 1.000000
vt 0.500000 1.000000
vt 0.625000 1.000000
vt 0.875000 0.000000
vt 0.750000 0.000000
vt 0.875000 0.125000
vt 0.750000 0.125000
vt 0.875000 0.250000
vt 0.750000 0.250000
vt 0.125000 0.000000
vt 0.250000 0.000000
vt 0.125000 0.125000
vt 0.250000 0.125000
vt 0.125000 0.250000
vt 0.250000 0.250000
vn -0.800405 -0.280653 0.529703
vn -0.800405 -0.280653 0.529703
vn -0.800405 -0.280653 0.529703
vn -0.854957 -0.306286 0.418615
vn -0.854957 -0.306286 0.418615
vn -0.854957 -0.306286 0.418615
vn 0.861591 -0.492287 0.123752
vn 0.861591 -0.492287 0.123752
vn 0.861591 -0.492287 0.123752
vn 0.821995 -0.374023 0.429455
vn 0.821995 -0.374023 0.429455
vn 0.821995 -0.374023 0.429455
vn -0.721629 -0.657877 0.215520
vn -0.721629 -0.657877 0.215520
vn -0.721629 -0.657877 0.215520
vn -0.674415 -0.400366 0.620380
vn -0.674416 -0.400366 0.620380
vn -0.674415 -0.400366 0.620380
vn 0.811848 -0.404779 0.420782
vn 0.811848 -0.404779 0.420782
vn 0.811848 -0.404779 0.420782
vn 0.730373 -0.290370 0.618256
vn 0.730373 -0.290370 0.618256
vn 0.730373 -0.290370 0.618256
vn -0.033061 0.998422 -0.045395
vn -0.033061 0.998422 -0.045395
vn -0.033061 0.998422 -0.045395
vn 0.000000 1.000000 0.000000
vn 0.000000 1.000000 0.000000
vn 0.000000 1.000000 0.000000
vn 0.059125 0.997328 -0.042905
vn 0.059125 0.997328 -0.042905
vn 0.059125 0.997328 -0.042905
vn 0.000000 1.000000 0.000000
vn 0.000000 1.000000 0.000000
vn 0.000000 1.000000 0.000000
vn 0.000000 0.997903 -0.064728
vn 0.000000 0.997903 -0.064728
vn 0.000000 0.997903 -0.064728
vn 0.000000 0.997903 -0.064728
vn 0.000000 0.997903 -0.064728
vn 0.000000 0.997903 -0.064728
vn 0.000000 0.997903 -0.064728
vn 0.000000 0.997903 -0.064728
vn 0.000000 0.997903 -0.064728
vn 0.000000 0.997903 -0.064728
vn 0.000000 0.997903 -0.064728
vn 0.000000 0.997903 -0.064728
vn 0.000000 0.000000 -1.000000
vn 0.000000 0.000000 -1.000000
vn 0.000000 0.000000 -1.000000
vn 0.000000 0.000000 -1.000000
vn 0.000000 0.000000 -1.000000
vn 0.000000 0.000000 -1.000000
vn 0.000000 0.000000 -1.000000
vn 0.000000 0.000000 -1.000000
vn 0.000000 0.000000 -1.000000
vn 0.000000 0.000000 -1.000000
vn 0.000000 0.000000 -1.000000
vn 0.000000 0.000000 -1.000000
vn 0.000000 0.000000 -1.000000
vn 0.000000 0.000000 -1.000000
vn 0.000000 0.000000 -1.000000
vn -0.000000 0.000000 -1.000000
vn -0.000000 0.000000 -1.000000
vn -0.000000 0.000000 -1.000000
vn 0.000000 0.000000 -1.000000
vn 0.000000 0.000000 -1.000000
vn 0.000000 0.000000 -1.000000
vn 0.000000 0.000000 -1.000000
vn 0.000000 0.000000 -1.000000
vn 0.000000 0.000000 -1.000000
vn -0.265622 -0.896803 0.353820
vn -0.265622 -0.896803 0.353820
vn -0.265622 -0.896803 0.353820
vn -0.755361 -0.308172 0.578325
vn -0.755361 -0.308172 0.578325
vn -0.755361 -0.308172 0.578325
vn 0.609366 -0.791864 0.040306
vn 0.609366 -0.791864 0.040306
vn 0.609366 -0.791864 0.040306
vn 0.009974 -0.874590 0.484760
vn 0.009974 -0.874590 0.484760
vn 0.009974 -0.874590 0.484760
vn -0.721639 -0.294414 0.626544
vn -0.721639 -0.294414 0.626544
vn -0.721639 -0.294414 0.626544
vn -0.777438 -0.243876 0.579754
vn -0.777438 -0.243876 0.579754
vn -0.777438 -0.243876 0.579754
vn 0.009931 -0.851829 0.523726
vn 0.009931 -0.851829 0.523726
vn 0.009931 -0.851829 0.523726
vn 0.373289 -0.861343 -0.344591
vn 0.373289 -0.861343 -0.344591
vn 0.373289 -0.861343 -0.344591
vn 0.889085 -0.149721 0.432565
vn 0.889085 -0.149721 0.432565
vn 0.889085 -0.149721 0.432565
vn 0.751666 -0.594826 0.284922
vn 0.751666 -0.594826 0.284922
vn 0.751666 -0.594826 0.284922
vn 0.317675 -0.526342 0.788699
vn 0.317675 -0.526343 0.788699
vn 0.317675 -0.526342 0.788699
vn 0.807563 -0.140499 0.572802
vn 0.807563 -0.140499 0.572802
vn 0.807563 -0.140499 0.572802
vn 0.810830 -0.196298 0.551381
vn 0.810830 -0.196298 0.551381
vn 0.810830 -0.196298 0.551381
vn 0.762965 -0.277075 0.584049
vn 0.762965 -0.277075 0.584049
vn 0.762965 -0.277075 0.584049
vn 0.780235 -0.188891 0.596283
vn 0.780235 -0.188891 0.596283
vn 0.780235 -0.188891 0.596283
vn 0.855958 -0.383128 0.347201
vn 0.855958 -0.383128 0.347201
vn 0.855958 -0.383128 0.347201
vn -0.788223 -0.252553 0.561179
vn -0.788223 -0.252553 0.561179
vn -0.788223 -0.252553 0.561179
vn -0.776046 0.000000 0.630676
vn -0.776046 0.000000 0.630676
vn -0.776046 0.000000 0.630676
vn -0.803219 0.000000 0.595684
vn -0.803219 0.000000 0.595684
vn -0.803219 0.000000 0.595684
vn -0.829662 -0.231638 0.507941
vn -0.829662 -0.231638 0.507941
vn -0.829662 -0.231638 0.507941
vn -0.746649 -0.263124 0.610967
vn -0.746649 -0.263124 0.610967
vn -0.746649 -0.263125 0.610967
vn -0.750503 -0.321030 0.577654
vn -0.750503 -0.321030 0.577654
vn -0.750503 -0.321030 0.577654
vn -0.676487 -0.625156 0.389287
vn -0.676487 -0.625157 0.389288
vn -0.676487 -0.625157 0.389288
vn -0.917730 -0.392562 0.060559
vn -0.917730 -0.392562 0.060559
vn -0.917730 -0.392562 0.060559
s off
g pCube4
usemtl initialShadingGroup
f 1/1/1 2/2/2 4/4/3
f 4/4/4 2/2/5 5/5/6
f 3/3/7 6/6/8 2/2/9
f 2/2/10 6/6/11 5/5/12
f 4/4/13 5/5/14 7/7/15
f 7/7/16 5/5/17 8/8/18
f 6/6/19 9/9/20 5/5/21
f 5/5/22 9/9/23 8/8/24
f 8/8/25 11/11/26 7/7/27
f 7/7/28 11/11/29 10/10/30
f 8/8/31 9/9/32 11/11/33
f 11/11/34 9/9/35 12/12/36
f 10/10/37 11/11/38 13/13/39
f 13/13/40 11/11/41 14/14/42
f 11/11/43 12/12/44 14/14/45
f 14/14/46 12/12/47 15/15/48
f 13/13/49 14/14/50 16/16/51
f 16/16/52 14/14/53 17/17/54
f 15/15/55 18/18/56 14/14/57
f 14/14/58 18/18/59 17/17/60
f 16/16/61 17/17/62 19/19/63
f 19/19/64 17/17/65 20/20/66
f 18/18/67 21/21/68 17/17/69
f 17/17/70 21/21/71 20/20/72
f 20/20/73 23/23/74 19/19/75
f 19/19/76 23/23/77 22/22/78
f 21/21/79 24/24/80 20/20/81
f 20/20/82 24/24/83 23/23/84
f 22/22/85 23/23/86 1/25/87
f 1/25/88 23/23/89 2/26/90
f 24/24/91 3/27/92 23/23/93
f 23/23/94 3/27/95 2/26/96
f 24/29/97 21/28/98 25/31/99
f 25/31/100 21/28/101 18/30/102
f 3/3/103 24/29/104 6/6/105
f 6/6/106 24/29/107 25/31/108
f 25/31/109 18/30/110 12/33/111
f 12/33/112 18/30/113 15/32/114
f 25/31/115 12/33/116 6/6/117
f 6/6/118 12/33/119 9/9/120
f 19/34/121 22/35/122 16/36/123
f 16/36/124 22/35/125 26/37/126
f 22/35/127 1/1/128 26/37/129
f 26/37/130 1/1/131 4/4/132
f 16/36/133 26/37/134 13/38/135
f 13/38/136 26/37/137 10/39/138
f 4/4/139 7/7/140 26/37/141
f 26/37/142 7/7/143 10/39/144
