# This file uses centimeters as units for non-parametric coordinates.

mtllib Statue_Variant_02_v01.mtl
g default
v 0.703752 -0.008910 -0.638725
v -0.598253 -0.008910 -0.586010
v -0.584179 0.162856 -0.608923
v 0.804705 0.311165 0.568827
v -0.557672 0.247827 0.557074
v -0.488404 -0.008910 0.493956
v -0.272382 0.256124 -0.005890
v 0.330548 0.190798 0.268147
v -0.177258 0.455603 -0.313475
v -0.155164 1.254722 -0.468306
v 0.443713 1.394318 -0.557118
v 0.449171 1.426753 0.036994
v 0.410295 0.392609 -0.106441
v -0.154819 1.921470 -0.182053
v 0.186975 0.358449 -0.407158
v 0.429507 0.768513 -0.265786
v -0.035285 2.213116 0.591784
v 0.334728 2.269121 0.249008
v 0.177506 2.742655 0.129707
v -0.206679 1.203152 -0.000140
v -0.168340 1.885967 -0.255883
v 0.009330 2.144542 0.480997
v -0.310921 2.316799 0.505544
v -0.044258 2.633778 0.624856
v 0.481346 2.429361 0.579988
v 0.045562 2.579603 1.087424
v -0.245354 2.369296 1.003668
v 0.153793 2.435130 1.093492
v 0.021414 2.237277 0.816641
v -0.341672 2.295632 0.856717
v -0.163380 2.766283 0.872790
v 0.134052 2.448786 0.638415
v 0.578178 2.441073 0.330476
v 0.582445 2.456193 0.469315
v -0.092523 2.550320 0.091933
v 0.086363 2.434973 -0.373446
v 0.411696 1.763750 -0.240361
v -0.199011 0.917349 0.146915
v -0.524802 0.213680 -0.164827
v -0.269375 0.156782 -0.324003
v -0.226239 0.676303 -0.099339
v -0.224498 1.894310 -0.628479
v -0.385448 2.082278 -0.211876
v -0.226488 2.132506 0.272403
v 0.219174 2.779013 0.498076
v 0.300390 2.035584 -0.102317
v 0.764032 0.214524 -0.029256
v 0.798596 -0.008910 -0.038396
v -0.503419 -0.008910 -0.185807
v 0.750498 -0.008910 0.498856
v 0.092806 -0.008910 -0.686555
v 0.762948 0.182806 -0.620943
v 0.401865 0.209030 -0.408600
v -0.494541 2.209544 0.369344
v -0.492577 2.360089 0.222100
v -0.414935 1.998427 0.042430
v -0.496758 1.697139 0.391126
v -0.524576 1.758045 0.148632
v -0.335120 1.798048 0.317902
v -0.331863 1.669503 0.110988
v 0.413552 1.764582 0.241430
v 0.230656 1.911434 0.290573
v -0.144809 1.630822 0.188705
v -0.340246 1.541936 0.192116
v -0.197826 1.658243 0.395523
v 0.096681 1.657341 0.234222
v 0.236225 1.724216 0.387204
v -0.514832 1.952069 0.354021
v -0.560665 1.963194 0.192354
vt 0.375000 0.000000
vt 0.494205 0.000000
vt 0.375000 0.250000
vt 0.375000 0.500000
vt 0.375000 0.750000
vt 0.375000 0.870780
vt 0.375000 1.000000
vt 0.494205 1.000000
vt 0.625000 0.000000
vt 0.754220 0.000000
vt 0.625000 0.250000
vt 0.754220 0.250000
vt 0.245780 0.000000
vt 0.245780 0.250000
vt 0.375000 0.250000
vt 0.625000 0.379220
vt 0.625000 0.250000
vt 0.375000 0.500000
vt 0.375000 0.379220
vt 0.625000 0.250000
vt 0.375000 0.379220
vt 0.375000 0.250000
vt 0.375000 0.250000
vt 0.500000 0.500000
vt 0.625000 0.250000
vt 0.625000 0.500000
vt 0.625000 0.500000
vt 0.375000 0.500000
vt 0.625000 0.500000
vt 0.625000 0.250000
vt 0.375000 0.500000
vt 0.375000 0.250000
vt 0.375000 0.500000
vt 0.625000 0.500000
vt 0.625000 0.486864
vt 0.533593 0.250000
vt 0.625250 0.392954
vt 0.375000 0.250000
vt 0.375000 0.250000
vt 0.375000 0.500000
vt 0.375000 0.500000
vt 0.375000 0.250000
vt 0.437494 0.333977
vt 0.625000 0.333977
vt 0.500000 0.250000
vt 0.562506 0.500000
vt 0.625000 0.333977
vt 0.500000 0.376385
vt 0.375000 0.500000
vt 0.375000 0.500000
vt 0.375000 0.500000
vt 0.625000 0.500000
vt 0.500000 0.250000
vt 0.375000 0.250000
vt 0.375000 0.500000
vt 0.625000 0.500000
vt 0.625000 0.379220
vt 0.125000 0.000000
vt 0.125000 0.250000
vt 0.875000 0.250000
vt 0.875000 0.000000
vt 0.625000 0.750000
vt 0.625000 0.870780
vt 0.625000 1.000000
vt 0.533593 0.250000
vt 0.500000 0.250000
vt 0.619526 0.484499
vt 0.533593 0.250000
vt 0.500000 0.250000
vt 0.624959 0.379220
vt 0.625000 0.500000
vt 0.531511 0.298793
vt 0.613301 0.341593
vt 0.625000 0.500000
vt 0.500000 0.250000
vt 0.533593 0.250000
vt 0.622562 0.503631
vt 0.533593 0.250000
vt 0.533593 0.250000
vt 0.500000 0.250000
vn 0.077869 0.068206 -0.994628
vn 0.077869 0.068206 -0.994628
vn 0.077869 0.068206 -0.994628
vn 0.000000 -1.000000 0.000000
vn 0.000000 -1.000000 0.000000
vn 0.000000 -1.000000 0.000000
vn 0.000000 -1.000000 0.000000
vn 0.000000 -1.000000 0.000000
vn 0.000000 -1.000000 0.000000
vn -0.967169 0.109815 0.229183
vn -0.967169 0.109815 0.229183
vn -0.967169 0.109816 0.229184
vn -0.983677 -0.108056 0.143888
vn -0.983677 -0.108056 0.143888
vn -0.983677 -0.108056 0.143888
vn 0.975468 0.157204 -0.154111
vn 0.975468 0.157204 -0.154111
vn 0.975468 0.157204 -0.154111
vn 0.955024 -0.296191 0.014127
vn 0.955024 -0.296191 0.014127
vn 0.955024 -0.296191 0.014127
vn 0.137256 0.981872 -0.130720
vn 0.137256 0.981872 -0.130720
vn 0.137256 0.981872 -0.130720
vn 0.040964 0.997724 -0.053559
vn 0.040964 0.997724 -0.053559
vn 0.040964 0.997724 -0.053559
vn -0.949674 0.296333 -0.101518
vn -0.949674 0.296333 -0.101518
vn -0.949674 0.296333 -0.101518
vn -0.962395 0.046151 -0.267703
vn -0.962395 0.046151 -0.267703
vn -0.962395 0.046151 -0.267703
vn -0.110113 0.884610 0.453146
vn -0.110112 0.884610 0.453146
vn -0.110112 0.884610 0.453146
vn 0.001216 0.696491 -0.717564
vn 0.001216 0.696491 -0.717564
vn 0.001216 0.696492 -0.717564
vn 0.786638 -0.274611 -0.552982
vn 0.786638 -0.274611 -0.552982
vn 0.786638 -0.274611 -0.552982
vn 0.174064 0.237816 0.955586
vn 0.174064 0.237816 0.955586
vn 0.174064 0.237816 0.955586
vn -0.084581 -0.250678 -0.964369
vn -0.084581 -0.250678 -0.964369
vn -0.084581 -0.250677 -0.964369
vn 0.114250 0.638854 0.760797
vn 0.114250 0.638854 0.760797
vn 0.114250 0.638854 0.760797
vn 0.142980 -0.289978 0.946292
vn 0.142980 -0.289978 0.946292
vn 0.142980 -0.289978 0.946292
vn -0.335929 -0.475273 -0.813184
vn -0.335929 -0.475273 -0.813183
vn -0.335929 -0.475273 -0.813184
vn -0.140701 -0.520095 -0.842440
vn -0.140701 -0.520095 -0.842440
vn -0.140701 -0.520095 -0.842440
vn 0.102332 0.205237 0.973348
vn 0.102332 0.205237 0.973348
vn 0.102332 0.205237 0.973348
vn -0.989095 -0.087496 -0.118474
vn -0.989095 -0.087496 -0.118474
vn -0.989095 -0.087496 -0.118474
vn -0.992969 0.118226 -0.005937
vn -0.992969 0.118226 -0.005937
vn -0.992969 0.118226 -0.005937
vn 0.505322 0.731159 -0.458319
vn 0.505322 0.731159 -0.458319
vn 0.505322 0.731159 -0.458319
vn 0.999624 -0.026298 -0.007747
vn 0.999624 -0.026298 -0.007747
vn 0.999624 -0.026298 -0.007747
vn -0.200797 0.443939 0.873269
vn -0.200797 0.443939 0.873269
vn -0.200797 0.443939 0.873269
vn -0.986623 0.063539 0.150127
vn -0.986623 0.063539 0.150127
vn -0.986623 0.063539 0.150128
vn -0.038391 -0.464903 0.884529
vn -0.038391 -0.464903 0.884529
vn -0.038391 -0.464903 0.884529
vn -0.172722 0.353967 0.919171
vn -0.172722 0.353967 0.919171
vn -0.172722 0.353967 0.919171
vn -0.386134 -0.786551 0.481912
vn -0.386134 -0.786551 0.481912
vn -0.386134 -0.786551 0.481912
vn -0.587970 0.666926 -0.457713
vn -0.587970 0.666926 -0.457713
vn -0.587970 0.666926 -0.457713
vn 0.223777 0.378223 0.898260
vn 0.223777 0.378223 0.898260
vn 0.223777 0.378223 0.898260
vn 0.640777 0.753551 -0.146856
vn 0.640777 0.753551 -0.146856
vn 0.640777 0.753551 -0.146856
vn 0.301751 -0.949445 -0.086609
vn 0.301751 -0.949445 -0.086609
vn 0.301751 -0.949445 -0.086609
vn 0.473864 -0.856467 0.204737
vn 0.473864 -0.856467 0.204737
vn 0.473864 -0.856467 0.204737
vn -0.587357 0.797142 0.139917
vn -0.587357 0.797142 0.139917
vn -0.587357 0.797142 0.139917
vn -0.657200 0.753717 -0.000053
vn -0.657200 0.753717 -0.000053
vn -0.657200 0.753717 -0.000053
vn -0.423415 -0.836691 0.347374
vn -0.423415 -0.836691 0.347374
vn -0.423415 -0.836691 0.347374
vn 0.323494 -0.740742 0.588772
vn 0.323494 -0.740742 0.588772
vn 0.323494 -0.740742 0.588772
vn -0.490272 0.362536 0.792591
vn -0.490272 0.362536 0.792591
vn -0.490273 0.362536 0.792591
vn -0.858802 0.311440 0.406773
vn -0.858802 0.311440 0.406773
vn -0.858802 0.311440 0.406773
vn -0.085230 -0.867216 0.490583
vn -0.085230 -0.867216 0.490583
vn -0.085230 -0.867216 0.490583
vn 0.800554 0.599026 -0.016752
vn 0.800554 0.599026 -0.016752
vn 0.800554 0.599026 -0.016752
vn -0.779458 0.313791 -0.542199
vn -0.779458 0.313791 -0.542199
vn -0.779458 0.313791 -0.542199
vn -0.200972 -0.109676 0.973438
vn -0.200972 -0.109676 0.973438
vn -0.200972 -0.109676 0.973438
vn 0.862388 -0.503516 -0.052520
vn 0.862388 -0.503516 -0.052520
vn 0.862388 -0.503516 -0.052520
vn 0.693806 0.718383 -0.050586
vn 0.693806 0.718383 -0.050586
vn 0.693806 0.718383 -0.050586
vn 0.720893 0.690522 -0.059109
vn 0.720893 0.690522 -0.059109
vn 0.720893 0.690522 -0.059109
vn -0.327277 -0.941063 -0.085380
vn -0.327277 -0.941063 -0.085380
vn -0.327277 -0.941063 -0.085380
vn 0.816860 -0.558051 -0.146012
vn 0.816860 -0.558051 -0.146012
vn 0.816860 -0.558051 -0.146012
vn -0.759838 0.649535 -0.027385
vn -0.759838 0.649535 -0.027385
vn -0.759838 0.649535 -0.027385
vn 0.003752 -0.814433 0.580245
vn 0.003752 -0.814433 0.580245
vn 0.003752 -0.814433 0.580245
vn 0.381362 -0.104779 -0.918469
vn 0.381362 -0.104779 -0.918469
vn 0.381362 -0.104779 -0.918469
vn 0.461372 -0.861350 0.212633
vn 0.461372 -0.861350 0.212633
vn 0.461372 -0.861350 0.212633
vn 0.559029 -0.825949 0.072767
vn 0.559029 -0.825949 0.072767
vn 0.559029 -0.825949 0.072767
vn 0.656321 0.747612 -0.101585
vn 0.656321 0.747612 -0.101585
vn 0.656321 0.747612 -0.101585
vn 0.542916 0.554777 0.630448
vn 0.542916 0.554777 0.630448
vn 0.542916 0.554777 0.630448
vn -0.160730 -0.047680 0.985846
vn -0.160730 -0.047680 0.985846
vn -0.160730 -0.047680 0.985846
vn -0.144716 -0.817448 0.557527
vn -0.144716 -0.817448 0.557527
vn -0.144716 -0.817448 0.557527
vn -0.499307 0.776493 -0.384385
vn -0.499307 0.776493 -0.384385
vn -0.499307 0.776493 -0.384385
vn 0.907431 0.264776 -0.326287
vn 0.907431 0.264776 -0.326287
vn 0.907431 0.264776 -0.326287
vn 0.935059 0.246200 -0.255048
vn 0.935059 0.246200 -0.255048
vn 0.935059 0.246200 -0.255048
vn -0.578434 -0.803767 0.139182
vn -0.578434 -0.803767 0.139182
vn -0.578434 -0.803767 0.139182
vn -0.539856 0.669262 -0.510533
vn -0.539856 0.669262 -0.510533
vn -0.539856 0.669262 -0.510533
vn -0.691809 0.592471 -0.412770
vn -0.691809 0.592471 -0.412770
vn -0.691809 0.592471 -0.412770
vn -0.195336 -0.869411 0.453838
vn -0.195336 -0.869411 0.453838
vn -0.195336 -0.869411 0.453838
vn 0.295219 0.263466 -0.918385
vn 0.295219 0.263466 -0.918385
vn 0.295219 0.263466 -0.918385
vn -0.036247 -0.421087 -0.906296
vn -0.036247 -0.421087 -0.906296
vn -0.036247 -0.421087 -0.906296
vn -0.278665 0.456181 -0.845130
vn -0.278665 0.456181 -0.845130
vn -0.278665 0.456181 -0.845130
vn -0.289937 -0.667706 0.685642
vn -0.289937 -0.667706 0.685642
vn -0.289937 -0.667706 0.685642
vn 0.998876 -0.040878 0.023998
vn 0.998876 -0.040878 0.023998
vn 0.998876 -0.040878 0.023998
vn -0.133125 0.989688 -0.052876
vn -0.133125 0.989688 -0.052876
vn -0.133125 0.989688 -0.052876
vn 0.027017 0.954262 -0.297748
vn 0.027017 0.954262 -0.297748
vn 0.027017 0.954262 -0.297748
vn -0.982812 -0.137414 -0.123281
vn -0.982812 -0.137414 -0.123281
vn -0.982812 -0.137414 -0.123281
vn -0.982290 0.111541 0.150549
vn -0.982290 0.111541 0.150549
vn -0.982290 0.111541 0.150549
vn -0.056843 -0.990970 0.121439
vn -0.056843 -0.990970 0.121439
vn -0.056843 -0.990970 0.121439
vn -0.141901 -0.979779 0.141061
vn -0.141901 -0.979779 0.141061
vn -0.141901 -0.979779 0.141061
vn 0.903051 0.418622 -0.096206
vn 0.903051 0.418622 -0.096206
vn 0.903051 0.418622 -0.096206
vn 0.873640 0.358133 -0.329385
vn 0.873640 0.358133 -0.329385
vn 0.873640 0.358133 -0.329385
vn 0.995012 0.098689 -0.014529
vn 0.995012 0.098689 -0.014529
vn 0.995012 0.098689 -0.014529
vn 0.273119 -0.142227 0.951408
vn 0.273119 -0.142227 0.951408
vn 0.273119 -0.142227 0.951408
vn 0.974015 -0.204598 0.097133
vn 0.974015 -0.204598 0.097133
vn 0.974015 -0.204598 0.097133
vn -0.154562 0.976934 -0.147347
vn -0.154562 0.976934 -0.147347
vn -0.154562 0.976934 -0.147347
vn -0.039035 0.998978 0.022799
vn -0.039035 0.998978 0.022799
vn -0.039035 0.998978 0.022799
vn 0.978837 -0.184929 0.087631
vn 0.978837 -0.184929 0.087631
vn 0.978837 -0.184929 0.087631
vn 0.983472 0.155904 -0.092074
vn 0.983472 0.155904 -0.092074
vn 0.983472 0.155904 -0.092074
vn 0.000000 -1.000000 0.000000
vn 0.000000 -1.000000 0.000000
vn 0.000000 -1.000000 0.000000
vn -0.994942 -0.091715 -0.040964
vn -0.994942 -0.091715 -0.040964
vn -0.994942 -0.091715 -0.040964
vn -0.963930 -0.265304 0.021293
vn -0.963930 -0.265304 0.021293
vn -0.963930 -0.265304 0.021293
vn -0.046363 0.998886 -0.008773
vn -0.046363 0.998886 -0.008773
vn -0.046363 0.998886 -0.008773
vn 0.414391 0.404348 -0.815342
vn 0.414391 0.404348 -0.815342
vn 0.414391 0.404348 -0.815342
vn -0.003864 -0.212938 0.977058
vn -0.003864 -0.212938 0.977058
vn -0.003864 -0.212938 0.977058
vn 0.002689 -0.238053 0.971249
vn 0.002689 -0.238053 0.971248
vn 0.002689 -0.238053 0.971249
vn 0.000000 -1.000000 -0.000000
vn 0.000000 -1.000000 -0.000000
vn 0.000000 -1.000000 -0.000000
vn 0.000000 -1.000000 0.000000
vn 0.000000 -1.000000 0.000000
vn 0.000000 -1.000000 0.000000
vn -0.013727 0.366386 -0.930362
vn -0.013727 0.366386 -0.930362
vn -0.013727 0.366386 -0.930362
vn -0.142949 -0.119351 -0.982508
vn -0.142949 -0.119351 -0.982508
vn -0.142949 -0.119351 -0.982508
vn -0.112322 0.944836 -0.307683
vn -0.112322 0.944836 -0.307683
vn -0.112322 0.944836 -0.307683
vn -0.014465 0.999200 0.037283
vn -0.014465 0.999200 0.037283
vn -0.014465 0.999200 0.037283
vn -0.130437 0.075041 -0.988613
vn -0.130437 0.075041 -0.988613
vn -0.130437 0.075041 -0.988613
vn -0.312971 0.888252 0.336241
vn -0.312971 0.888252 0.336241
vn -0.312971 0.888252 0.336241
vn -0.684052 0.514580 0.516992
vn -0.684052 0.514580 0.516992
vn -0.684052 0.514580 0.516992
vn -0.001375 -0.784740 0.619824
vn -0.001375 -0.784740 0.619824
vn -0.001375 -0.784740 0.619824
vn -0.497752 0.669456 -0.551427
vn -0.497753 0.669456 -0.551427
vn -0.497752 0.669456 -0.551427
vn -0.978718 -0.132098 -0.157038
vn -0.978718 -0.132098 -0.157038
vn -0.978718 -0.132098 -0.157038
vn 0.690153 -0.707266 -0.153180
vn 0.690153 -0.707266 -0.153180
vn 0.690153 -0.707266 -0.153180
vn -0.976671 0.156531 0.147012
vn -0.976671 0.156531 0.147012
vn -0.976671 0.156531 0.147012
vn -0.959324 0.059175 0.276038
vn -0.959323 0.059175 0.276038
vn -0.959323 0.059175 0.276038
vn 0.318222 -0.081291 0.944525
vn 0.318222 -0.081291 0.944525
vn 0.318222 -0.081291 0.944525
vn -0.726246 0.174422 -0.664938
vn -0.726246 0.174422 -0.664938
vn -0.726246 0.174422 -0.664938
vn -0.750602 -0.656055 -0.078671
vn -0.750602 -0.656055 -0.078671
vn -0.750602 -0.656055 -0.078671
vn -0.115513 -0.825287 0.552774
vn -0.115513 -0.825287 0.552774
vn -0.115513 -0.825287 0.552774
vn 0.055973 0.526108 0.848574
vn 0.055973 0.526108 0.848574
vn 0.055973 0.526108 0.848574
vn -0.046939 0.449250 0.892172
vn -0.046939 0.449250 0.892172
vn -0.046939 0.449250 0.892172
vn -0.375325 -0.479713 -0.793099
vn -0.375325 -0.479714 -0.793099
vn -0.375325 -0.479714 -0.793099
vn 0.228241 -0.533102 -0.814683
vn 0.228241 -0.533102 -0.814683
vn 0.228241 -0.533102 -0.814683
vn 0.366264 0.792975 -0.486869
vn 0.366264 0.792975 -0.486869
vn 0.366264 0.792975 -0.486869
vn -0.141381 0.499455 -0.854726
vn -0.141381 0.499455 -0.854726
vn -0.141381 0.499455 -0.854726
vn 0.170247 0.126948 -0.977190
vn 0.170247 0.126948 -0.977190
vn 0.170247 0.126948 -0.977190
vn 0.213119 -0.500782 -0.838927
vn 0.213119 -0.500782 -0.838927
vn 0.213119 -0.500782 -0.838927
vn 0.202741 -0.904489 0.375228
vn 0.202741 -0.904489 0.375228
vn 0.202741 -0.904489 0.375228
vn 0.149540 -0.948770 0.278342
vn 0.149540 -0.948770 0.278342
vn 0.149540 -0.948770 0.278342
vn -0.052407 0.456787 0.888031
vn -0.052407 0.456787 0.888031
vn -0.052407 0.456787 0.888031
vn -0.061574 0.246936 -0.967074
vn -0.061574 0.246936 -0.967074
vn -0.061574 0.246936 -0.967074
vn 0.315606 -0.940833 0.123392
vn 0.315605 -0.940833 0.123392
vn 0.315606 -0.940833 0.123392
vn 0.524828 0.402683 0.749935
vn 0.524828 0.402683 0.749935
vn 0.524828 0.402683 0.749935
vn 0.240744 0.053640 0.969105
vn 0.240744 0.053640 0.969105
vn 0.240744 0.053640 0.969105
vn 0.323502 0.158710 0.932822
vn 0.323502 0.158710 0.932822
vn 0.323502 0.158710 0.932822
vn 0.815365 -0.329580 -0.475980
vn 0.815365 -0.329580 -0.475980
vn 0.815365 -0.329580 -0.475980
vn 0.968129 0.219288 -0.120994
vn 0.968129 0.219288 -0.120994
vn 0.968129 0.219288 -0.120994
vn -0.719411 0.021407 -0.694254
vn -0.719411 0.021407 -0.694254
vn -0.719411 0.021407 -0.694254
vn -0.301441 -0.266922 -0.915361
vn -0.301441 -0.266922 -0.915361
vn -0.301441 -0.266922 -0.915361
vn -0.962205 -0.028806 0.270801
vn -0.962205 -0.028806 0.270800
vn -0.962204 -0.028806 0.270800
vn -0.980274 -0.186431 0.065630
vn -0.980274 -0.186431 0.065630
vn -0.980274 -0.186431 0.065630
s off
g pCube2
usemtl initialShadingGroup
f 1/1/1 51/2/2 52/3/3
f 48/6/4 49/63/5 1/7/6
f 1/7/7 49/63/8 51/8/9
f 2/9/10 49/10/11 3/11/12
f 3/11/13 49/10/14 39/12/15
f 48/13/16 1/1/17 47/14/18
f 47/14/19 1/1/20 52/3/21
f 3/11/22 39/16/23 40/17/24
f 52/3/25 53/15/26 47/19/27
f 9/20/28 40/17/29 7/57/30
f 9/20/31 7/57/32 41/29/33
f 7/57/34 8/18/35 13/21/36
f 15/22/37 9/20/38 41/29/39
f 13/21/40 15/22/41 16/23/42
f 25/40/43 24/38/44 32/49/45
f 11/32/46 10/30/47 42/25/48
f 37/28/49 21/27/50 12/33/51
f 32/49/52 17/24/53 25/40/54
f 53/15/55 9/20/56 15/22/57
f 10/30/58 16/23/59 41/29/60
f 7/57/61 13/21/62 41/29/63
f 20/26/64 10/30/65 38/31/66
f 38/31/67 10/30/68 41/29/69
f 53/15/70 15/22/71 13/21/72
f 11/32/73 12/33/74 16/23/75
f 20/26/76 38/31/77 12/33/78
f 21/27/79 14/34/80 42/25/81
f 46/55/82 14/34/83 37/28/84
f 21/27/85 20/26/86 12/33/87
f 22/35/88 23/36/89 44/37/90
f 45/39/91 23/36/92 24/38/93
f 24/38/94 25/40/95 45/39/96
f 33/51/97 19/42/98 45/39/99
f 43/52/100 18/41/101 22/35/102
f 22/35/103 18/41/104 25/40/105
f 35/53/106 23/36/107 19/42/108
f 19/42/109 23/36/110 45/39/111
f 23/36/112 22/35/113 17/24/114
f 22/35/115 25/40/116 17/24/117
f 26/43/118 31/45/119 27/44/120
f 30/47/121 27/44/122 31/45/123
f 29/46/124 27/44/125 30/47/126
f 28/48/127 32/49/128 26/43/129
f 30/47/130 31/45/131 24/38/132
f 28/48/133 26/43/134 27/44/135
f 29/46/136 32/49/137 28/48/138
f 24/38/139 31/45/140 26/43/141
f 24/38/142 26/43/143 32/49/144
f 17/24/145 30/47/146 23/36/147
f 32/49/148 29/46/149 17/24/150
f 30/47/151 24/38/152 23/36/153
f 29/46/154 28/48/155 27/44/156
f 18/41/157 19/42/158 33/51/159
f 18/41/160 34/50/161 25/40/162
f 18/41/163 33/51/164 34/50/165
f 45/39/166 34/50/167 33/51/168
f 25/40/169 34/50/170 45/39/171
f 14/34/172 46/55/173 43/52/174
f 43/52/175 46/55/176 18/41/177
f 36/54/178 35/53/179 19/42/180
f 36/54/181 19/42/182 46/55/183
f 46/55/184 19/42/185 18/41/186
f 14/34/187 43/52/188 42/25/189
f 42/25/190 43/52/191 35/53/192
f 42/25/193 35/53/194 36/54/195
f 21/27/196 37/28/197 14/34/198
f 11/32/199 42/25/200 36/54/201
f 16/23/202 10/30/203 11/32/204
f 41/29/205 16/23/206 15/22/207
f 38/31/208 41/29/209 13/21/210
f 16/23/211 12/33/212 13/21/213
f 5/56/214 7/57/215 39/16/216
f 39/16/217 7/57/218 40/17/219
f 10/30/220 20/26/221 42/25/222
f 42/25/223 20/26/224 21/27/225
f 44/37/226 43/52/227 22/35/228
f 30/47/229 17/24/230 29/46/231
f 37/28/232 36/54/233 46/55/234
f 37/28/235 11/32/236 36/54/237
f 12/33/238 11/32/239 37/28/240
f 12/33/241 38/31/242 13/21/243
f 8/18/244 53/15/245 13/21/246
f 4/4/247 47/19/248 8/18/249
f 8/18/250 47/19/251 53/15/252
f 50/58/253 48/13/254 4/59/255
f 4/59/256 48/13/257 47/14/258
f 48/6/259 50/5/260 49/63/261
f 39/12/262 49/10/263 5/60/264
f 5/60/265 49/10/266 6/61/267
f 5/56/268 4/4/269 7/57/270
f 7/57/271 4/4/272 8/18/273
f 50/5/274 4/4/275 6/62/276
f 6/62/277 4/4/278 5/56/279
f 49/63/280 50/5/281 6/62/282
f 51/8/283 49/63/284 2/64/285
f 52/3/286 51/2/287 3/11/288
f 3/11/289 51/2/290 2/9/291
f 53/15/292 52/3/293 40/17/294
f 40/17/295 52/3/296 3/11/297
f 9/20/298 53/15/299 40/17/300
f 35/53/301 55/66/302 23/36/303
f 23/36/304 55/66/305 54/65/306
f 23/36/307 54/65/308 44/37/309
f 35/53/310 43/52/311 55/66/312
f 55/66/313 43/52/314 56/67/315
f 43/52/316 44/37/317 56/67/318
f 55/66/319 69/80/320 54/65/321
f 54/65/322 69/80/323 68/79/324
f 54/65/325 68/79/326 44/37/327
f 55/66/328 56/67/329 69/80/330
f 58/69/331 64/75/332 57/68/333
f 57/68/334 64/75/335 65/76/336
f 57/68/337 65/76/338 59/70/339
f 59/70/340 65/76/341 62/73/342
f 58/69/343 60/71/344 64/75/345
f 64/75/346 60/71/347 63/74/348
f 60/71/349 59/70/350 63/74/351
f 63/74/352 59/70/353 62/73/354
f 63/74/355 62/73/356 66/77/357
f 64/75/358 63/74/359 66/77/360
f 64/75/361 66/77/362 65/76/363
f 65/76/364 66/77/365 67/78/366
f 65/76/367 67/78/368 62/73/369
f 66/77/370 62/73/371 61/72/372
f 66/77/373 61/72/374 67/78/375
f 67/78/376 61/72/377 62/73/378
f 44/37/379 68/79/380 59/70/381
f 59/70/382 68/79/383 57/68/384
f 44/37/385 59/70/386 56/67/387
f 56/67/388 59/70/389 60/71/390
f 69/80/391 56/67/392 58/69/393
f 58/69/394 56/67/395 60/71/396
f 68/79/397 69/80/398 57/68/399
f 57/68/400 69/80/401 58/69/402
