# This file uses centimeters as units for non-parametric coordinates.

mtllib Statue_Variant_01_v01.mtl
g default
v -0.703752 -0.008909 0.560355
v 0.598253 -0.008909 0.507639
v 0.583997 0.162670 0.530455
v -0.803630 0.309352 -0.645812
v 0.557673 0.247828 -0.635445
v 0.488402 -0.008909 -0.572328
v 0.270533 0.252688 -0.071838
v -0.330352 0.189208 -0.345691
v 0.169645 0.434338 0.241339
v -0.137120 1.057169 0.229835
v -0.422572 1.179093 0.249470
v -0.422868 1.204764 -0.160575
v -0.408096 0.380050 0.028930
v 0.107244 1.792587 -0.057763
v -0.187343 0.348452 0.326563
v -0.420587 0.705985 0.150647
v -0.102271 2.703678 -0.044984
v -0.411753 2.390362 -0.093479
v -0.479393 2.366269 0.348614
v -0.089499 1.044193 -0.125267
v 0.009343 1.501419 -0.110010
v -0.086129 2.587424 -0.141640
v 0.070050 2.664375 0.156340
v -0.263753 2.792124 0.274192
v -0.589663 2.686435 -0.081561
v -0.330972 3.277012 0.143012
v 0.024780 3.255068 0.123679
v -0.357089 3.253931 -0.010776
v -0.104475 2.973049 -0.200264
v 0.108432 2.965664 0.099569
v -0.243626 3.134342 0.401793
v -0.328012 2.764646 0.060712
v -0.669475 2.466837 -0.071104
v -0.678840 2.587849 -0.083313
v -0.192890 2.326365 0.314214
v -0.285483 1.897530 0.229740
v -0.387954 1.445288 -0.112481
v -0.091929 0.824781 -0.106737
v 0.523577 0.212241 0.086477
v 0.268568 0.155435 0.245394
v 0.005022 0.623841 0.103472
v 0.058372 1.425822 0.240737
v 0.221774 2.316237 0.066100
v 0.229471 2.578886 0.047862
v -0.526277 2.684598 0.301407
v -0.312452 1.887892 -0.181687
v -0.763092 0.212988 -0.048854
v -0.798596 -0.008909 -0.039976
v 0.503419 -0.008909 0.107436
v -0.750499 -0.008909 -0.577227
v -0.092807 -0.008909 0.608184
v -0.762948 0.182807 0.542572
v -0.401656 0.207994 0.329957
vt 0.375000 0.000000
vt 0.494205 0.000000
vt 0.375000 0.250000
vt 0.375000 0.500000
vt 0.375000 0.750000
vt 0.375000 0.870780
vt 0.375000 1.000000
vt 0.494205 1.000000
vt 0.625000 0.000000
vt 0.754220 0.000000
vt 0.625000 0.250000
vt 0.754220 0.250000
vt 0.245780 0.000000
vt 0.245780 0.250000
vt 0.375000 0.250000
vt 0.625000 0.379220
vt 0.625000 0.250000
vt 0.375000 0.500000
vt 0.375000 0.379220
vt 0.625000 0.250000
vt 0.375000 0.379220
vt 0.375000 0.250000
vt 0.375000 0.250000
vt 0.500000 0.500000
vt 0.625000 0.250000
vt 0.625000 0.500000
vt 0.625000 0.500000
vt 0.375000 0.500000
vt 0.625000 0.500000
vt 0.625000 0.250000
vt 0.375000 0.500000
vt 0.375000 0.250000
vt 0.375000 0.500000
vt 0.625000 0.500000
vt 0.625000 0.486864
vt 0.533593 0.250000
vt 0.624959 0.379220
vt 0.375000 0.250000
vt 0.375000 0.250000
vt 0.375000 0.500000
vt 0.375000 0.500000
vt 0.375000 0.250000
vt 0.437494 0.333977
vt 0.625000 0.333977
vt 0.500000 0.250000
vt 0.562506 0.500000
vt 0.625000 0.333977
vt 0.500000 0.376385
vt 0.375000 0.500000
vt 0.375000 0.500000
vt 0.375000 0.500000
vt 0.625000 0.500000
vt 0.500000 0.250000
vt 0.375000 0.250000
vt 0.375000 0.500000
vt 0.625000 0.500000
vt 0.625000 0.379220
vt 0.125000 0.000000
vt 0.125000 0.250000
vt 0.875000 0.250000
vt 0.875000 0.000000
vt 0.625000 0.750000
vt 0.625000 0.870780
vt 0.625000 1.000000
vn -0.077866 0.068216 0.994627
vn -0.077866 0.068216 0.994627
vn -0.077866 0.068216 0.994627
vn -0.000000 -1.000000 0.000000
vn -0.000000 -1.000000 0.000000
vn -0.000000 -1.000000 0.000000
vn -0.000000 -1.000000 0.000001
vn -0.000000 -1.000000 0.000001
vn -0.000000 -1.000000 0.000001
vn 0.967060 0.110821 -0.229159
vn 0.967060 0.110821 -0.229159
vn 0.967060 0.110821 -0.229159
vn 0.983939 -0.103474 -0.145455
vn 0.983939 -0.103474 -0.145455
vn 0.983939 -0.103474 -0.145455
vn -0.974683 0.162112 0.153987
vn -0.974684 0.162112 0.153987
vn -0.974683 0.162112 0.153987
vn -0.954993 -0.296253 -0.014885
vn -0.954994 -0.296253 -0.014885
vn -0.954993 -0.296253 -0.014885
vn -0.138657 0.981967 0.128509
vn -0.138657 0.981967 0.128509
vn -0.138657 0.981967 0.128509
vn -0.039594 0.997917 0.050934
vn -0.039594 0.997917 0.050934
vn -0.039594 0.997917 0.050934
vn 0.936454 0.333718 0.108107
vn 0.936454 0.333718 0.108107
vn 0.936454 0.333718 0.108107
vn 0.786136 0.609832 -0.100468
vn 0.786137 0.609832 -0.100468
vn 0.786137 0.609832 -0.100468
vn 0.103431 0.894781 -0.434361
vn 0.103431 0.894781 -0.434361
vn 0.103431 0.894781 -0.434361
vn 0.041647 0.611196 0.790383
vn 0.041647 0.611196 0.790383
vn 0.041647 0.611196 0.790383
vn -0.791716 -0.240109 0.561724
vn -0.791716 -0.240109 0.561724
vn -0.791716 -0.240109 0.561724
vn -0.263755 0.963557 -0.044628
vn -0.263755 0.963557 -0.044628
vn -0.263755 0.963557 -0.044628
vn 0.045675 -0.053716 0.997511
vn 0.045675 -0.053716 0.997511
vn 0.045675 -0.053716 0.997511
vn -0.022031 0.199100 -0.979732
vn -0.022031 0.199100 -0.979732
vn -0.022031 0.199100 -0.979732
vn 0.005945 0.871647 -0.490098
vn 0.005945 0.871647 -0.490098
vn 0.005945 0.871647 -0.490098
vn 0.308377 -0.450276 0.837947
vn 0.308377 -0.450276 0.837947
vn 0.308377 -0.450276 0.837947
vn 0.056112 -0.262502 0.963298
vn 0.056112 -0.262502 0.963299
vn 0.056112 -0.262503 0.963299
vn -0.063535 0.388709 -0.919167
vn -0.063535 0.388709 -0.919167
vn -0.063535 0.388709 -0.919167
vn 0.991129 0.000246 0.132906
vn 0.991129 0.000246 0.132906
vn 0.991129 0.000246 0.132906
vn 0.934883 0.338144 -0.107950
vn 0.934882 0.338144 -0.107950
vn 0.934882 0.338144 -0.107950
vn -0.487007 0.753748 0.441236
vn -0.487007 0.753748 0.441236
vn -0.487007 0.753748 0.441236
vn -0.999991 -0.004291 0.000453
vn -0.999991 -0.004291 0.000453
vn -0.999991 -0.004291 0.000453
vn 0.064527 -0.084686 -0.994316
vn 0.064527 -0.084686 -0.994316
vn 0.064527 -0.084686 -0.994316
vn 0.940098 -0.281622 -0.192108
vn 0.940098 -0.281622 -0.192108
vn 0.940098 -0.281622 -0.192108
vn 0.238207 -0.189572 -0.952533
vn 0.238207 -0.189572 -0.952533
vn 0.238207 -0.189572 -0.952533
vn 0.109807 0.009429 -0.993908
vn 0.109807 0.009429 -0.993908
vn 0.109807 0.009429 -0.993908
vn 0.239750 0.902164 -0.358636
vn 0.239750 0.902164 -0.358636
vn 0.239750 0.902164 -0.358636
vn 0.216597 -0.293122 0.931217
vn 0.216597 -0.293122 0.931217
vn 0.216597 -0.293122 0.931217
vn -0.372323 0.925749 0.066065
vn -0.372323 0.925749 0.066065
vn -0.372323 0.925749 0.066065
vn 0.548664 -0.036693 0.835238
vn 0.548664 -0.036693 0.835238
vn 0.548664 -0.036693 0.835238
vn -0.915021 -0.076014 0.396181
vn -0.915021 -0.076014 0.396181
vn -0.915021 -0.076014 0.396181
vn 0.161553 -0.477964 -0.863395
vn 0.161553 -0.477964 -0.863395
vn 0.161553 -0.477964 -0.863395
vn -0.125249 -0.035355 -0.991495
vn -0.125249 -0.035355 -0.991495
vn -0.125249 -0.035355 -0.991495
vn 0.156323 0.315545 0.935946
vn 0.156323 0.315545 0.935946
vn 0.156323 0.315545 0.935946
vn 0.238307 0.176717 0.954977
vn 0.238307 0.176717 0.954977
vn 0.238307 0.176717 0.954977
vn 0.699469 0.511820 -0.498781
vn 0.699469 0.511820 -0.498781
vn 0.699469 0.511820 -0.498781
vn 0.034789 0.641782 -0.766097
vn 0.034789 0.641782 -0.766097
vn 0.034789 0.641782 -0.766097
vn 0.079560 0.884065 0.460542
vn 0.079560 0.884065 0.460542
vn 0.079560 0.884065 0.460542
vn 0.682262 0.137384 0.718084
vn 0.682262 0.137384 0.718084
vn 0.682262 0.137384 0.718084
vn 0.787406 0.273616 -0.552382
vn 0.787406 0.273616 -0.552382
vn 0.787406 0.273616 -0.552382
vn -0.984499 -0.033347 0.172191
vn -0.984499 -0.033347 0.172191
vn -0.984499 -0.033347 0.172191
vn 0.521612 -0.324836 0.788925
vn 0.521612 -0.324836 0.788925
vn 0.521612 -0.324836 0.788925
vn 0.052307 0.986229 -0.156893
vn 0.052307 0.986230 -0.156893
vn 0.052307 0.986230 -0.156893
vn -0.691545 -0.144500 -0.707733
vn -0.691545 -0.144500 -0.707733
vn -0.691545 -0.144500 -0.707733
vn -0.954651 -0.053087 0.292955
vn -0.954651 -0.053087 0.292955
vn -0.954651 -0.053087 0.292955
vn -0.954333 -0.052747 0.294051
vn -0.954333 -0.052747 0.294051
vn -0.954333 -0.052747 0.294051
vn 0.720558 -0.215952 -0.658909
vn 0.720558 -0.215952 -0.658909
vn 0.720558 -0.215952 -0.658909
vn -0.475510 -0.442261 -0.760458
vn -0.475510 -0.442261 -0.760458
vn -0.475510 -0.442261 -0.760458
vn 0.372723 0.125756 0.919382
vn 0.372723 0.125756 0.919382
vn 0.372723 0.125756 0.919382
vn 0.240976 0.682335 -0.690181
vn 0.240976 0.682335 -0.690181
vn 0.240976 0.682335 -0.690181
vn -0.290831 -0.951908 -0.096374
vn -0.290831 -0.951908 -0.096374
vn -0.290831 -0.951908 -0.096374
vn -0.014933 0.031259 -0.999400
vn -0.014933 0.031259 -0.999400
vn -0.014933 0.031259 -0.999400
vn -0.117930 -0.108711 -0.987053
vn -0.117930 -0.108711 -0.987053
vn -0.117930 -0.108711 -0.987053
vn -0.926109 -0.033756 0.375742
vn -0.926109 -0.033756 0.375742
vn -0.926109 -0.033756 0.375742
vn -0.736888 0.664329 0.125153
vn -0.736888 0.664329 0.125153
vn -0.736888 0.664329 0.125153
vn 0.311750 0.153610 -0.937665
vn 0.311750 0.153610 -0.937665
vn 0.311750 0.153610 -0.937665
vn 0.262229 0.216896 -0.940315
vn 0.262229 0.216896 -0.940315
vn 0.262229 0.216896 -0.940315
vn 0.513749 0.044439 0.856789
vn 0.513749 0.044439 0.856789
vn 0.513749 0.044439 0.856789
vn 0.087560 -0.210695 0.973623
vn 0.087560 -0.210695 0.973623
vn 0.087560 -0.210695 0.973623
vn -0.915502 -0.396302 0.069294
vn -0.915502 -0.396302 0.069294
vn -0.915502 -0.396302 0.069294
vn -0.973619 -0.164687 -0.157938
vn -0.973619 -0.164687 -0.157938
vn -0.973619 -0.164687 -0.157938
vn 0.977574 -0.194996 -0.079538
vn 0.977574 -0.194996 -0.079538
vn 0.977574 -0.194996 -0.079538
vn 0.513389 0.073479 0.855004
vn 0.513389 0.073479 0.855004
vn 0.513389 0.073479 0.855005
vn -0.224791 -0.141379 0.964096
vn -0.224791 -0.141379 0.964096
vn -0.224791 -0.141379 0.964096
vn -0.019741 0.183007 -0.982913
vn -0.019741 0.183007 -0.982913
vn -0.019741 0.183007 -0.982913
vn 0.004514 0.026592 0.999636
vn 0.004514 0.026592 0.999636
vn 0.004514 0.026592 0.999636
vn -0.020033 -0.204508 0.978660
vn -0.020033 -0.204508 0.978660
vn -0.020033 -0.204508 0.978660
vn 0.194041 0.532094 0.824151
vn 0.194041 0.532094 0.824151
vn 0.194041 0.532094 0.824150
vn 0.445504 -0.535570 -0.717420
vn 0.445504 -0.535570 -0.717420
vn 0.445504 -0.535569 -0.717420
vn -0.999099 -0.025662 -0.033806
vn -0.999099 -0.025662 -0.033806
vn -0.999099 -0.025662 -0.033806
vn 0.124142 0.990755 0.054703
vn 0.124142 0.990755 0.054703
vn 0.124142 0.990755 0.054703
vn -0.030423 0.955691 0.292796
vn -0.030423 0.955691 0.292796
vn -0.030423 0.955691 0.292796
vn 0.873820 -0.467346 0.134260
vn 0.873820 -0.467346 0.134260
vn 0.873820 -0.467346 0.134260
vn 0.962990 -0.202230 -0.178198
vn 0.962989 -0.202230 -0.178198
vn 0.962990 -0.202230 -0.178198
vn 0.511870 -0.074429 -0.855833
vn 0.511870 -0.074429 -0.855833
vn 0.511870 -0.074429 -0.855833
vn 0.770570 -0.313561 -0.554889
vn 0.770570 -0.313561 -0.554889
vn 0.770570 -0.313561 -0.554889
vn -0.982366 0.176997 0.060247
vn -0.982366 0.176997 0.060247
vn -0.982366 0.176997 0.060247
vn -0.981067 0.188431 0.044748
vn -0.981067 0.188431 0.044748
vn -0.981066 0.188431 0.044748
vn -0.989854 0.141766 0.009590
vn -0.989854 0.141766 0.009590
vn -0.989854 0.141766 0.009590
vn -0.100112 -0.224525 -0.969312
vn -0.100112 -0.224525 -0.969312
vn -0.100112 -0.224525 -0.969312
vn -0.973688 -0.206198 -0.097025
vn -0.973688 -0.206198 -0.097025
vn -0.973688 -0.206198 -0.097025
vn 0.154657 0.976941 0.147201
vn 0.154657 0.976941 0.147201
vn 0.154657 0.976941 0.147201
vn 0.038640 0.998972 -0.023698
vn 0.038640 0.998972 -0.023698
vn 0.038640 0.998972 -0.023698
vn -0.979311 -0.182382 -0.087673
vn -0.979311 -0.182382 -0.087673
vn -0.979311 -0.182382 -0.087673
vn -0.982603 0.160929 0.092703
vn -0.982603 0.160929 0.092703
vn -0.982603 0.160929 0.092703
vn 0.000000 -1.000000 0.000001
vn 0.000000 -1.000000 0.000001
vn 0.000000 -1.000000 0.000001
vn 0.995320 -0.086673 0.042735
vn 0.995320 -0.086673 0.042735
vn 0.995320 -0.086673 0.042735
vn 0.963928 -0.265311 -0.021294
vn 0.963928 -0.265311 -0.021294
vn 0.963928 -0.265311 -0.021294
vn 0.045035 0.998883 0.014330
vn 0.045035 0.998883 0.014330
vn 0.045035 0.998883 0.014330
vn -0.414304 0.404541 0.815290
vn -0.414304 0.404541 0.815290
vn -0.414304 0.404541 0.815290
vn 0.003867 -0.210046 -0.977684
vn 0.003867 -0.210046 -0.977684
vn 0.003867 -0.210046 -0.977684
vn -0.003354 -0.237880 -0.971289
vn -0.003354 -0.237880 -0.971289
vn -0.003354 -0.237880 -0.971289
vn 0.000000 -1.000000 -0.000001
vn 0.000000 -1.000000 -0.000001
vn 0.000000 -1.000000 -0.000001
vn -0.000000 -1.000000 0.000000
vn -0.000000 -1.000000 0.000000
vn -0.000000 -1.000000 0.000000
vn 0.013850 0.366771 0.930208
vn 0.013850 0.366771 0.930208
vn 0.013850 0.366771 0.930208
vn 0.142960 -0.118785 0.982575
vn 0.142960 -0.118785 0.982575
vn 0.142960 -0.118785 0.982575
vn 0.112460 0.946268 0.303199
vn 0.112460 0.946268 0.303199
vn 0.112460 0.946268 0.303199
vn 0.014563 0.999034 -0.041469
vn 0.014563 0.999034 -0.041469
vn 0.014563 0.999034 -0.041469
vn 0.129606 0.060359 0.989727
vn 0.129606 0.060359 0.989727
vn 0.129606 0.060359 0.989727
s off
g pCube1
usemtl initialShadingGroup
f 1/1/1 51/2/2 52/3/3
f 48/6/4 49/63/5 1/7/6
f 1/7/7 49/63/8 51/8/9
f 2/9/10 49/10/11 3/11/12
f 3/11/13 49/10/14 39/12/15
f 48/13/16 1/1/17 47/14/18
f 47/14/19 1/1/20 52/3/21
f 3/11/22 39/16/23 40/17/24
f 52/3/25 53/15/26 47/19/27
f 9/20/28 40/17/29 7/57/30
f 9/20/31 7/57/32 41/29/33
f 7/57/34 8/18/35 13/21/36
f 15/22/37 9/20/38 41/29/39
f 13/21/40 15/22/41 16/23/42
f 25/40/43 24/38/44 32/49/45
f 11/32/46 10/30/47 42/25/48
f 37/28/49 21/27/50 12/33/51
f 32/49/52 17/24/53 25/40/54
f 53/15/55 9/20/56 15/22/57
f 10/30/58 16/23/59 41/29/60
f 7/57/61 13/21/62 41/29/63
f 20/26/64 10/30/65 38/31/66
f 38/31/67 10/30/68 41/29/69
f 53/15/70 15/22/71 13/21/72
f 11/32/73 12/33/74 16/23/75
f 20/26/76 38/31/77 12/33/78
f 21/27/79 14/34/80 42/25/81
f 46/55/82 14/34/83 37/28/84
f 21/27/85 20/26/86 12/33/87
f 22/35/88 23/36/89 44/37/90
f 45/39/91 23/36/92 24/38/93
f 24/38/94 25/40/95 45/39/96
f 23/36/97 35/53/98 44/37/99
f 33/51/100 19/42/101 45/39/102
f 43/52/103 18/41/104 22/35/105
f 22/35/106 18/41/107 25/40/108
f 35/53/109 23/36/110 19/42/111
f 19/42/112 23/36/113 45/39/114
f 23/36/115 22/35/116 17/24/117
f 22/35/118 25/40/119 17/24/120
f 26/43/121 31/45/122 27/44/123
f 30/47/124 27/44/125 31/45/126
f 29/46/127 27/44/128 30/47/129
f 28/48/130 32/49/131 26/43/132
f 30/47/133 31/45/134 24/38/135
f 28/48/136 26/43/137 27/44/138
f 29/46/139 32/49/140 28/48/141
f 24/38/142 31/45/143 26/43/144
f 24/38/145 26/43/146 32/49/147
f 17/24/148 30/47/149 23/36/150
f 32/49/151 29/46/152 17/24/153
f 30/47/154 24/38/155 23/36/156
f 29/46/157 28/48/158 27/44/159
f 18/41/160 19/42/161 33/51/162
f 18/41/163 34/50/164 25/40/165
f 18/41/166 33/51/167 34/50/168
f 45/39/169 34/50/170 33/51/171
f 25/40/172 34/50/173 45/39/174
f 14/34/175 46/55/176 43/52/177
f 43/52/178 46/55/179 18/41/180
f 35/53/181 43/52/182 44/37/183
f 36/54/184 35/53/185 19/42/186
f 36/54/187 19/42/188 46/55/189
f 46/55/190 19/42/191 18/41/192
f 14/34/193 43/52/194 42/25/195
f 42/25/196 43/52/197 35/53/198
f 42/25/199 35/53/200 36/54/201
f 21/27/202 37/28/203 14/34/204
f 11/32/205 42/25/206 36/54/207
f 16/23/208 10/30/209 11/32/210
f 41/29/211 16/23/212 15/22/213
f 38/31/214 41/29/215 13/21/216
f 16/23/217 12/33/218 13/21/219
f 5/56/220 7/57/221 39/16/222
f 39/16/223 7/57/224 40/17/225
f 10/30/226 20/26/227 42/25/228
f 42/25/229 20/26/230 21/27/231
f 44/37/232 43/52/233 22/35/234
f 30/47/235 17/24/236 29/46/237
f 37/28/238 36/54/239 46/55/240
f 37/28/241 11/32/242 36/54/243
f 12/33/244 11/32/245 37/28/246
f 12/33/247 38/31/248 13/21/249
f 8/18/250 53/15/251 13/21/252
f 4/4/253 47/19/254 8/18/255
f 8/18/256 47/19/257 53/15/258
f 50/58/259 48/13/260 4/59/261
f 4/59/262 48/13/263 47/14/264
f 48/6/265 50/5/266 49/63/267
f 39/12/268 49/10/269 5/60/270
f 5/60/271 49/10/272 6/61/273
f 5/56/274 4/4/275 7/57/276
f 7/57/277 4/4/278 8/18/279
f 50/5/280 4/4/281 6/62/282
f 6/62/283 4/4/284 5/56/285
f 49/63/286 50/5/287 6/62/288
f 51/8/289 49/63/290 2/64/291
f 52/3/292 51/2/293 3/11/294
f 3/11/295 51/2/296 2/9/297
f 53/15/298 52/3/299 40/17/300
f 40/17/301 52/3/302 3/11/303
f 9/20/304 53/15/305 40/17/306
