# This file uses centimeters as units for non-parametric coordinates.

mtllib tutorial_wall2_2.mtl
g default
v -3.407008 5.100165 5.860720
v -2.164656 5.000000 6.720999
v -0.889298 5.000000 6.720999
v 0.575144 5.000000 6.720999
v 2.205001 5.000000 6.720999
v 4.082902 5.000000 6.720999
v 5.544853 5.000000 6.720999
v 6.680036 5.000000 6.720999
v 8.265301 5.000000 6.720999
v 9.126840 4.518585 5.413916
v -3.712079 3.346573 6.147534
v -2.361858 3.394503 6.761283
v -0.190023 3.835482 6.516654
v 0.930215 3.478118 6.786264
v 2.414221 3.080066 6.671224
v 3.165165 3.795618 6.520778
v 4.954401 3.213497 6.592278
v 7.237395 2.690395 6.562673
v 8.681501 3.938137 6.495958
v 9.288757 3.287348 5.621764
v -3.514428 1.267807 6.309176
v -2.396388 0.911048 6.936687
v -0.912217 1.724056 6.675232
v 0.826431 0.847586 6.860211
v 2.139631 2.216637 6.677412
v 4.159530 2.040280 6.598653
v 5.658073 1.407512 6.773083
v 6.811559 1.477150 6.597652
v 8.741422 2.045157 6.561434
v 9.505934 1.526445 6.226871
v -3.455147 -0.000000 6.343953
v -2.644015 0.082858 6.790942
v -0.327934 0.082858 6.790942
v 0.999467 0.082858 6.790942
v 2.326867 0.082858 6.790942
v 3.654268 0.082858 6.790942
v 4.981669 0.082858 6.790942
v 6.309069 0.082858 6.790942
v 9.028700 0.082858 6.422385
v 9.544853 -0.000000 5.944388
vt 0.000000 0.000000
vt 0.111111 0.000000
vt 0.222222 0.000000
vt 0.333333 0.000000
vt 0.444444 0.000000
vt 0.555556 0.000000
vt 0.666667 0.000000
vt 0.777778 0.000000
vt 0.888889 0.000000
vt 1.000000 0.000000
vt 0.000000 0.333333
vt 0.111111 0.333333
vt 0.222222 0.333333
vt 0.333333 0.333333
vt 0.444444 0.333333
vt 0.555556 0.333333
vt 0.666667 0.333333
vt 0.777778 0.333333
vt 0.888889 0.333333
vt 1.000000 0.333333
vt 0.000000 0.666667
vt 0.111111 0.666667
vt 0.222222 0.666667
vt 0.333333 0.666667
vt 0.444444 0.666667
vt 0.555556 0.666667
vt 0.666667 0.666667
vt 0.777778 0.666667
vt 0.888889 0.666667
vt 1.000000 0.666667
vt 0.000000 1.000000
vt 0.111111 1.000000
vt 0.222222 1.000000
vt 0.333333 1.000000
vt 0.444444 1.000000
vt 0.555556 1.000000
vt 0.666667 1.000000
vt 0.777778 1.000000
vt 0.888889 1.000000
vt 1.000000 1.000000
vn 0.000000 0.129257 -0.991611
vn 0.000000 0.129257 -0.991611
vn 0.000000 0.129257 -0.991611
vn -0.188761 -0.000000 -0.982023
vn -0.188761 -0.000000 -0.982023
vn -0.188761 -0.000000 -0.982023
vn 0.000000 0.172835 -0.984951
vn 0.000000 0.172835 -0.984951
vn 0.000000 0.172835 -0.984951
vn -0.020390 0.139157 -0.990060
vn -0.020390 0.139157 -0.990060
vn -0.020390 0.139157 -0.990060
vn 0.000000 0.172835 -0.984951
vn 0.000000 0.172835 -0.984951
vn 0.000000 0.172835 -0.984951
vn 0.238163 0.013920 -0.971125
vn 0.238163 0.013920 -0.971125
vn 0.238163 0.013920 -0.971125
vn 0.000000 -0.042845 -0.999082
vn 0.000000 -0.042845 -0.999082
vn 0.000000 -0.042845 -0.999082
vn -0.072488 0.017954 -0.997208
vn -0.072488 0.017954 -0.997208
vn -0.072488 0.017954 -0.997208
vn -0.000000 0.163993 -0.986461
vn -0.000000 0.163993 -0.986461
vn -0.000000 0.163993 -0.986461
vn -0.199766 0.003634 -0.979837
vn -0.199766 0.003634 -0.979837
vn -0.199766 0.003634 -0.979837
vn 0.000000 0.163993 -0.986462
vn 0.000000 0.163993 -0.986462
vn 0.000000 0.163993 -0.986462
vn 0.057074 0.052970 -0.996964
vn 0.057074 0.052970 -0.996964
vn 0.057074 0.052970 -0.996964
vn -0.000000 0.071866 -0.997414
vn -0.000000 0.071866 -0.997414
vn -0.000000 0.071866 -0.997414
vn 0.002893 0.069085 -0.997607
vn 0.002893 0.069085 -0.997607
vn 0.002893 0.069085 -0.997607
vn 0.000000 -0.040460 -0.999181
vn 0.000000 -0.040460 -0.999181
vn 0.000000 -0.040460 -0.999181
vn 0.079684 0.087300 -0.992990
vn 0.079684 0.087300 -0.992990
vn 0.079684 0.087300 -0.992990
vn -0.000000 -0.040460 -0.999181
vn -0.000000 -0.040460 -0.999181
vn -0.000000 -0.040460 -0.999181
vn -0.036863 0.000000 -0.999320
vn -0.036863 0.000000 -0.999320
vn -0.036863 0.000000 -0.999320
vn -0.040287 -0.138274 -0.989574
vn -0.040287 -0.138274 -0.989574
vn -0.040287 -0.138274 -0.989574
vn 0.098145 0.000000 -0.995172
vn 0.098145 0.000000 -0.995172
vn 0.098145 0.000000 -0.995172
vn -0.025856 -0.066072 -0.997480
vn -0.025856 -0.066072 -0.997480
vn -0.025856 -0.066072 -0.997480
vn -0.208938 -0.215310 -0.953932
vn -0.208938 -0.215310 -0.953932
vn -0.208938 -0.215310 -0.953932
vn 0.189933 -0.137971 -0.972054
vn 0.189933 -0.137971 -0.972054
vn 0.189933 -0.137971 -0.972054
vn 0.090011 -0.031534 -0.995441
vn 0.090011 -0.031534 -0.995441
vn 0.090011 -0.031534 -0.995441
vn -0.072994 0.016067 -0.997203
vn -0.072994 0.016067 -0.997203
vn -0.072994 0.016067 -0.997203
vn -0.113832 -0.023429 -0.993224
vn -0.113832 -0.023429 -0.993224
vn -0.113832 -0.023429 -0.993224
vn -0.101593 -0.101456 -0.989639
vn -0.101593 -0.101456 -0.989639
vn -0.101593 -0.101456 -0.989639
vn -0.038518 0.005088 -0.999245
vn -0.038518 0.005088 -0.999245
vn -0.038518 0.005088 -0.999245
vn 0.031269 -0.026615 -0.999157
vn 0.031269 -0.026615 -0.999157
vn 0.031269 -0.026615 -0.999157
vn 0.088188 -0.065150 -0.993971
vn 0.088188 -0.065150 -0.993971
vn 0.088188 -0.065150 -0.993971
vn -0.039136 -0.114626 -0.992638
vn -0.039136 -0.114626 -0.992638
vn -0.039136 -0.114626 -0.992638
vn -0.151774 0.024783 -0.988104
vn -0.151774 0.024783 -0.988104
vn -0.151774 0.024783 -0.988104
vn 0.082851 0.084401 -0.992981
vn 0.082851 0.084401 -0.992981
vn 0.082851 0.084401 -0.992981
vn -0.021959 -0.021110 -0.999536
vn -0.021959 -0.021110 -0.999536
vn -0.021959 -0.021110 -0.999536
vn -0.001620 0.081029 -0.996710
vn -0.001620 0.081029 -0.996710
vn -0.001620 0.081029 -0.996710
vn 0.149223 0.000000 -0.988804
vn 0.149223 0.000000 -0.988804
vn 0.149223 0.000000 -0.988804
vn 0.098145 0.000000 -0.995172
vn 0.098145 0.000000 -0.995172
vn 0.098145 0.000000 -0.995172
vn 0.031021 0.159148 -0.986767
vn 0.031021 0.159148 -0.986767
vn 0.031021 0.159148 -0.986767
vn -0.297098 -0.171989 -0.939230
vn -0.297098 -0.171989 -0.939230
vn -0.297098 -0.171989 -0.939230
vn 0.000000 0.173317 -0.984866
vn 0.000000 0.173317 -0.984866
vn 0.000000 0.173317 -0.984866
vn 0.085960 -0.039584 -0.995512
vn 0.085960 -0.039584 -0.995512
vn 0.085960 -0.039584 -0.995512
vn 0.000000 0.090210 -0.995923
vn 0.000000 0.090210 -0.995923
vn 0.000000 0.090210 -0.995923
vn -0.076353 -0.059656 -0.995295
vn -0.076353 -0.059656 -0.995295
vn -0.076353 -0.059656 -0.995295
vn 0.000000 0.090210 -0.995923
vn 0.000000 0.090210 -0.995923
vn 0.000000 0.090210 -0.995923
vn -0.046298 -0.085817 -0.995235
vn -0.046298 -0.085817 -0.995235
vn -0.046298 -0.085817 -0.995235
vn 0.000000 -0.053131 -0.998588
vn 0.000000 -0.053131 -0.998588
vn 0.000000 -0.053131 -0.998588
vn 0.066957 -0.114650 -0.991147
vn 0.066957 -0.114650 -0.991147
vn 0.066957 -0.114650 -0.991147
vn 0.000000 -0.013481 -0.999909
vn 0.000000 -0.013481 -0.999909
vn 0.000000 -0.013481 -0.999909
vn -0.144835 -0.084470 -0.985844
vn -0.144835 -0.084470 -0.985844
vn -0.144835 -0.084470 -0.985844
vn 0.000000 -0.013481 -0.999909
vn 0.000000 -0.013481 -0.999909
vn 0.000000 -0.013481 -0.999909
vn -0.024200 -0.171586 -0.984872
vn -0.024200 -0.171586 -0.984872
vn -0.024200 -0.171586 -0.984872
vn 0.000000 -0.137316 -0.990527
vn 0.000000 -0.137316 -0.990527
vn 0.000000 -0.137316 -0.990527
vn 0.125343 -0.133659 -0.983069
vn 0.125343 -0.133659 -0.983069
vn 0.125343 -0.133659 -0.983069
vn -0.097534 -0.000000 -0.995232
vn -0.097534 -0.000000 -0.995232
vn -0.097534 -0.000000 -0.995232
s off
g pPlane3
usemtl initialShadingGroup
f 2/2/1 12/12/2 1/1/3
f 1/1/4 12/12/5 11/11/6
f 3/3/7 13/13/8 2/2/9
f 2/2/10 13/13/11 12/12/12
f 3/3/13 4/4/14 13/13/15
f 13/13/16 4/4/17 14/14/18
f 4/4/19 5/5/20 14/14/21
f 14/14/22 5/5/23 15/15/24
f 6/6/25 16/16/26 5/5/27
f 5/5/28 16/16/29 15/15/30
f 6/6/31 7/7/32 16/16/33
f 16/16/34 7/7/35 17/17/36
f 7/7/37 8/8/38 17/17/39
f 17/17/40 8/8/41 18/18/42
f 9/9/43 19/19/44 8/8/45
f 8/8/46 19/19/47 18/18/48
f 9/9/49 10/10/50 19/19/51
f 19/19/52 10/10/53 20/20/54
f 12/12/55 22/22/56 11/11/57
f 11/11/58 22/22/59 21/21/60
f 13/13/61 23/23/62 12/12/63
f 12/12/64 23/23/65 22/22/66
f 13/13/67 14/14/68 23/23/69
f 23/23/70 14/14/71 24/24/72
f 15/15/73 25/25/74 14/14/75
f 14/14/76 25/25/77 24/24/78
f 16/16/79 26/26/80 15/15/81
f 15/15/82 26/26/83 25/25/84
f 16/16/85 17/17/86 26/26/87
f 26/26/88 17/17/89 27/27/90
f 17/17/91 18/18/92 27/27/93
f 27/27/94 18/18/95 28/28/96
f 19/19/97 29/29/98 18/18/99
f 18/18/100 29/29/101 28/28/102
f 19/19/103 20/20/104 29/29/105
f 29/29/106 20/20/107 30/30/108
f 21/21/109 22/22/110 31/31/111
f 31/31/112 22/22/113 32/32/114
f 23/23/115 33/33/116 22/22/117
f 22/22/118 33/33/119 32/32/120
f 23/23/121 24/24/122 33/33/123
f 33/33/124 24/24/125 34/34/126
f 25/25/127 35/35/128 24/24/129
f 24/24/130 35/35/131 34/34/132
f 26/26/133 36/36/134 25/25/135
f 25/25/136 36/36/137 35/35/138
f 26/26/139 27/27/140 36/36/141
f 36/36/142 27/27/143 37/37/144
f 28/28/145 38/38/146 27/27/147
f 27/27/148 38/38/149 37/37/150
f 29/29/151 39/39/152 28/28/153
f 28/28/154 39/39/155 38/38/156
f 29/29/157 30/30/158 39/39/159
f 39/39/160 30/30/161 40/40/162
