# This file uses centimeters as units for non-parametric coordinates.

mtllib staircase_2.mtl
g default
v -1.400583 94.614166 8.905850
v -1.400583 81.710625 -9.522317
v -1.400583 81.710625 -9.000000
v -1.400583 80.855576 -9.000000
v -1.400583 93.614166 9.221150
v -1.400583 93.614166 9.000000
v -1.400583 94.614166 9.000000
v 1.099417 94.614166 9.000000
v 1.099417 94.614166 8.905850
v 1.099417 81.710625 -9.522317
v 1.099417 81.710625 -9.000000
v 1.099417 80.855576 -9.000000
v 1.099417 93.614166 9.221150
v 1.099417 93.614166 9.000000
vt 0.617990 0.250000
vt 0.376491 0.250000
vt 0.381084 0.175103
vt 0.375819 0.000000
vt 0.614605 -0.000000
vt 0.612661 0.031712
vt 0.618818 0.236500
vt 0.435127 0.801480
vt 0.429589 0.801480
vt 0.429589 0.948520
vt 0.435127 0.948520
vt 0.617990 0.500000
vt 0.376491 0.500000
vt 0.410000 0.362500
vt 0.404777 0.362500
vt 0.404777 0.387500
vt 0.410000 0.387500
vt 0.232639 0.103067
vt 0.232639 0.031814
vt 0.267361 0.031814
vt 0.267361 0.103067
vt 0.614605 1.000000
vt 0.375819 1.000000
vt 0.375819 0.750000
vt 0.614605 0.750000
vt 0.381084 0.574897
vt 0.618818 0.513500
vt 0.612661 0.718288
vt 0.767361 0.019734
vt 0.767361 0.103067
vt 0.732639 0.103067
vt 0.732639 0.019734
vt 0.590000 0.887500
vt 0.592211 0.887500
vt 0.592211 0.862500
vt 0.590000 0.862500
vn -1.000000 -0.000000 0.000000
vn -1.000000 -0.000000 0.000000
vn -1.000000 -0.000000 0.000000
vn -1.000000 -0.000000 0.000000
vn -1.000000 -0.000000 0.000000
vn -1.000000 -0.000000 0.000000
vn -1.000000 -0.000000 0.000000
vn 0.000000 1.000000 0.000000
vn 0.000000 1.000000 0.000000
vn 0.000000 1.000000 0.000000
vn 0.000000 1.000000 0.000000
vn 0.000000 0.819152 -0.573576
vn 0.000000 0.819152 -0.573576
vn 0.000000 0.819152 -0.573576
vn 0.000000 0.819152 -0.573576
vn 0.000000 -1.000000 0.000000
vn 0.000000 -1.000000 0.000000
vn 0.000000 -1.000000 0.000000
vn 0.000000 -1.000000 0.000000
vn 0.000000 0.000000 -1.000000
vn 0.000000 0.000000 -1.000000
vn 0.000000 0.000000 -1.000000
vn 0.000000 0.000000 -1.000000
vn 0.000000 -0.819152 0.573577
vn 0.000000 -0.819152 0.573577
vn 0.000000 -0.819152 0.573577
vn 0.000000 -0.819152 0.573577
vn 1.000000 -0.000000 0.000000
vn 1.000000 -0.000000 0.000000
vn 1.000000 -0.000000 0.000000
vn 1.000000 -0.000000 0.000000
vn 1.000000 -0.000000 0.000000
vn 1.000000 -0.000000 0.000000
vn 1.000000 -0.000000 0.000000
vn 0.000000 0.000000 1.000000
vn 0.000000 0.000000 1.000000
vn 0.000000 0.000000 1.000000
vn 0.000000 0.000000 1.000000
vn 0.000000 1.000000 0.000000
vn 0.000000 1.000000 0.000000
vn 0.000000 1.000000 0.000000
vn 0.000000 1.000000 0.000000
s off
g pCube94
usemtl initialShadingGroup
f 1/1/1 2/2/2 3/3/3 4/4/4 5/5/5 6/6/6 7/7/7
f 8/8/8 9/9/9 1/10/10 7/11/11
f 9/12/12 10/13/13 2/2/14 1/1/15
f 3/14/16 2/15/17 10/16/18 11/17/19
f 11/18/20 12/19/21 4/20/22 3/21/23
f 5/22/24 4/23/25 12/24/26 13/25/27
f 13/25/28 12/24/29 11/26/30 10/13/31 9/12/32 8/27/33 14/28/34
f 14/29/35 8/30/36 7/31/37 6/32/38
f 6/33/39 5/34/40 13/35/41 14/36/42
