# This file uses centimeters as units for non-parametric coordinates.

mtllib Light01.mtl
g default
v -0.195241 -0.827918 0.222228
v 0.005749 -1.141004 0.360050
v 0.106411 -1.015977 0.156576
v -0.144893 -0.744454 0.342526
v 0.016511 -0.835278 0.605717
v 0.214444 -0.801930 0.255907
v -0.494367 -0.035498 0.360050
v -0.023759 0.004520 0.897477
v 0.332353 -0.035498 0.457990
v -0.518126 -0.035498 0.000000
v 0.000000 -0.035498 0.000000
v 0.518126 -0.035498 0.000000
v -0.904439 -0.069271 -0.755309
v 0.000000 -0.069271 -0.755309
v 0.904439 -0.069271 -0.755309
v -0.783193 -0.733198 -0.755309
v 0.000000 -1.042099 -0.755309
v 0.783194 -0.723015 -0.755309
v -0.628501 -1.215994 -0.755309
v 0.000000 -1.402149 -0.755309
v 0.628501 -0.918495 -0.755309
v -0.360050 -0.896878 0.000000
v -0.270393 -1.116636 0.000000
v 0.344002 -1.111056 -0.002573
v 0.360050 -1.008326 0.000000
v -0.360050 -0.724925 0.000000
vt 0.375000 0.000000
vt 0.500000 0.000000
vt 0.625000 0.000000
vt 0.375000 0.125000
vt 0.500000 0.125000
vt 0.625000 0.125000
vt 0.375000 0.250000
vt 0.500000 0.250000
vt 0.625000 0.250000
vt 0.375000 0.375000
vt 0.500000 0.375000
vt 0.625000 0.375000
vt 0.375000 0.500000
vt 0.500000 0.500000
vt 0.625000 0.500000
vt 0.375000 0.625000
vt 0.500000 0.625000
vt 0.625000 0.625000
vt 0.375000 0.750000
vt 0.500000 0.750000
vt 0.625000 0.750000
vt 0.375000 0.875000
vt 0.500000 0.875000
vt 0.625000 0.875000
vt 0.375000 1.000000
vt 0.500000 1.000000
vt 0.625000 1.000000
vt 0.875000 0.000000
vt 0.750000 0.000000
vt 0.875000 0.125000
vt 0.750000 0.125000
vt 0.875000 0.250000
vt 0.750000 0.250000
vt 0.125000 0.000000
vt 0.250000 0.000000
vt 0.125000 0.125000
vt 0.250000 0.125000
vt 0.125000 0.250000
vt 0.250000 0.250000
vn -0.800405 -0.280653 0.529704
vn -0.800405 -0.280653 0.529704
vn -0.800405 -0.280653 0.529704
vn -0.854957 -0.306285 0.418615
vn -0.854957 -0.306285 0.418615
vn -0.854957 -0.306285 0.418615
vn 0.861591 -0.492287 0.123754
vn 0.861591 -0.492287 0.123754
vn 0.861591 -0.492287 0.123754
vn 0.821995 -0.374023 0.429454
vn 0.821995 -0.374023 0.429454
vn 0.821995 -0.374023 0.429454
vn -0.831346 -0.418834 0.365297
vn -0.831346 -0.418834 0.365297
vn -0.831346 -0.418834 0.365297
vn -0.716967 -0.259203 0.647127
vn -0.716967 -0.259203 0.647127
vn -0.716967 -0.259203 0.647127
vn 0.852354 -0.251958 0.458269
vn 0.852354 -0.251958 0.458269
vn 0.852354 -0.251958 0.458269
vn 0.755753 -0.182278 0.628977
vn 0.755753 -0.182278 0.628977
vn 0.755753 -0.182278 0.628977
vn -0.033061 0.998422 -0.045394
vn -0.033061 0.998422 -0.045394
vn -0.033061 0.998422 -0.045394
vn 0.000000 1.000000 0.000000
vn 0.000000 1.000000 0.000000
vn 0.000000 1.000000 0.000000
vn 0.059124 0.997328 -0.042905
vn 0.059124 0.997328 -0.042905
vn 0.059124 0.997328 -0.042905
vn 0.000000 1.000000 -0.000000
vn 0.000000 1.000000 -0.000000
vn 0.000000 1.000000 -0.000000
vn 0.000000 0.999002 -0.044670
vn 0.000000 0.999002 -0.044670
vn 0.000000 0.999002 -0.044670
vn 0.000000 0.999002 -0.044670
vn 0.000000 0.999002 -0.044670
vn 0.000000 0.999002 -0.044670
vn 0.000000 0.999002 -0.044670
vn 0.000000 0.999002 -0.044670
vn 0.000000 0.999002 -0.044670
vn 0.000000 0.999002 -0.044670
vn 0.000000 0.999002 -0.044670
vn 0.000000 0.999002 -0.044670
vn 0.000000 0.000000 -1.000000
vn 0.000000 0.000000 -1.000000
vn 0.000000 0.000000 -1.000000
vn 0.000000 0.000000 -1.000000
vn 0.000000 0.000000 -1.000000
vn 0.000000 0.000000 -1.000000
vn 0.000000 0.000000 -1.000000
vn 0.000000 0.000000 -1.000000
vn 0.000000 0.000000 -1.000000
vn 0.000000 0.000000 -1.000000
vn 0.000000 0.000000 -1.000000
vn 0.000000 0.000000 -1.000000
vn 0.000000 0.000000 -1.000000
vn 0.000000 0.000000 -1.000000
vn 0.000000 0.000000 -1.000000
vn 0.000000 0.000000 -1.000000
vn 0.000000 0.000000 -1.000000
vn 0.000000 0.000000 -1.000000
vn -0.000000 0.000000 -1.000000
vn -0.000000 0.000000 -1.000000
vn -0.000000 0.000000 -1.000000
vn 0.000000 0.000000 -1.000000
vn 0.000000 0.000000 -1.000000
vn 0.000000 0.000000 -1.000000
vn -0.274803 -0.927798 0.252338
vn -0.274803 -0.927798 0.252338
vn -0.274803 -0.927798 0.252338
vn -0.831888 -0.339394 0.439062
vn -0.831888 -0.339394 0.439062
vn -0.831888 -0.339394 0.439062
vn 0.609627 -0.792202 0.027754
vn 0.609627 -0.792202 0.027754
vn 0.609627 -0.792202 0.027754
vn 0.009979 -0.934168 0.356695
vn 0.009979 -0.934168 0.356695
vn 0.009979 -0.934168 0.356695
vn -0.721639 -0.294415 0.626544
vn -0.721639 -0.294415 0.626544
vn -0.721639 -0.294415 0.626544
vn -0.777438 -0.243876 0.579754
vn -0.777438 -0.243876 0.579754
vn -0.777438 -0.243876 0.579754
vn 0.009931 -0.851830 0.523725
vn 0.009931 -0.851830 0.523725
vn 0.009931 -0.851830 0.523725
vn 0.373288 -0.861344 -0.344590
vn 0.373288 -0.861344 -0.344590
vn 0.373288 -0.861344 -0.344590
vn 0.936631 -0.154195 0.314558
vn 0.936631 -0.154195 0.314558
vn 0.936631 -0.154195 0.314558
vn 0.768207 -0.607918 0.200734
vn 0.768207 -0.607918 0.200734
vn 0.768207 -0.607918 0.200734
vn 0.317677 -0.526341 0.788699
vn 0.317677 -0.526341 0.788699
vn 0.317677 -0.526341 0.788699
vn 0.807561 -0.140502 0.572804
vn 0.807561 -0.140502 0.572804
vn 0.807561 -0.140502 0.572804
vn 0.885528 -0.143891 0.441742
vn 0.885528 -0.143891 0.441742
vn 0.885528 -0.143891 0.441742
vn 0.875530 -0.162378 0.455062
vn 0.875530 -0.162378 0.455062
vn 0.875530 -0.162378 0.455062
vn 0.812056 -0.131952 0.568467
vn 0.812056 -0.131952 0.568467
vn 0.812056 -0.131952 0.568467
vn 0.900738 -0.234905 0.365364
vn 0.900738 -0.234905 0.365364
vn 0.900738 -0.234905 0.365364
vn -0.862730 -0.276426 0.423420
vn -0.862730 -0.276427 0.423420
vn -0.862730 -0.276427 0.423420
vn -0.872422 0.000000 0.488753
vn -0.872422 0.000000 0.488753
vn -0.872422 0.000000 0.488753
vn -0.803219 0.000000 0.595684
vn -0.803219 0.000000 0.595684
vn -0.803219 0.000000 0.595684
vn -0.829663 -0.231637 0.507941
vn -0.829663 -0.231637 0.507941
vn -0.829663 -0.231637 0.507941
vn -0.860839 -0.157206 0.483986
vn -0.860839 -0.157206 0.483986
vn -0.860839 -0.157206 0.483986
vn -0.868823 -0.199209 0.453279
vn -0.868823 -0.199209 0.453279
vn -0.868823 -0.199209 0.453279
vn -0.786440 -0.399316 0.471231
vn -0.786440 -0.399316 0.471231
vn -0.786440 -0.399316 0.471231
vn -0.972697 -0.223026 0.064185
vn -0.972697 -0.223026 0.064185
vn -0.972697 -0.223026 0.064185
s off
g pCube4
usemtl initialShadingGroup
f 1/1/1 2/2/2 4/4/3
f 4/4/4 2/2/5 5/5/6
f 3/3/7 6/6/8 2/2/9
f 2/2/10 6/6/11 5/5/12
f 4/4/13 5/5/14 7/7/15
f 7/7/16 5/5/17 8/8/18
f 6/6/19 9/9/20 5/5/21
f 5/5/22 9/9/23 8/8/24
f 8/8/25 11/11/26 7/7/27
f 7/7/28 11/11/29 10/10/30
f 8/8/31 9/9/32 11/11/33
f 11/11/34 9/9/35 12/12/36
f 10/10/37 11/11/38 13/13/39
f 13/13/40 11/11/41 14/14/42
f 11/11/43 12/12/44 14/14/45
f 14/14/46 12/12/47 15/15/48
f 13/13/49 14/14/50 16/16/51
f 16/16/52 14/14/53 17/17/54
f 15/15/55 18/18/56 14/14/57
f 14/14/58 18/18/59 17/17/60
f 16/16/61 17/17/62 19/19/63
f 19/19/64 17/17/65 20/20/66
f 18/18/67 21/21/68 17/17/69
f 17/17/70 21/21/71 20/20/72
f 20/20/73 23/23/74 19/19/75
f 19/19/76 23/23/77 22/22/78
f 21/21/79 24/24/80 20/20/81
f 20/20/82 24/24/83 23/23/84
f 22/22/85 23/23/86 1/25/87
f 1/25/88 23/23/89 2/26/90
f 24/24/91 3/27/92 23/23/93
f 23/23/94 3/27/95 2/26/96
f 24/29/97 21/28/98 25/31/99
f 25/31/100 21/28/101 18/30/102
f 3/3/103 24/29/104 6/6/105
f 6/6/106 24/29/107 25/31/108
f 25/31/109 18/30/110 12/33/111
f 12/33/112 18/30/113 15/32/114
f 25/31/115 12/33/116 6/6/117
f 6/6/118 12/33/119 9/9/120
f 19/34/121 22/35/122 16/36/123
f 16/36/124 22/35/125 26/37/126
f 22/35/127 1/1/128 26/37/129
f 26/37/130 1/1/131 4/4/132
f 16/36/133 26/37/134 13/38/135
f 13/38/136 26/37/137 10/39/138
f 4/4/139 7/7/140 26/37/141
f 26/37/142 7/7/143 10/39/144
